<svg xmlns="http://www.w3.org/2000/svg" width="48.976" height="44.245" viewBox="0 0 48.976 44.245">
  <g id="attachements" transform="translate(-0.988 -2.055)">
    <path id="Path_102" data-name="Path 102" d="M13.778,46.3a12.785,12.785,0,0,1-9.04-21.83L23.607,5.6a1.668,1.668,0,0,1,2.36,2.36L7.095,26.827A9.452,9.452,0,1,0,20.463,40.184L44.837,15.81a6.118,6.118,0,1,0-8.652-8.652L16.531,26.827a2.78,2.78,0,0,0,3.932,3.932L33.039,18.181a1.668,1.668,0,1,1,2.36,2.358L22.82,33.119a6.116,6.116,0,1,1-8.651-8.649L33.829,4.824A9.452,9.452,0,0,1,47.2,18.19L22.822,42.555A12.71,12.71,0,0,1,13.778,46.3Z" transform="translate(0)"/>
  </g>
</svg>
