<svg id="Case_Number" data-name="Case Number" xmlns="http://www.w3.org/2000/svg" width="52.927" height="59.168" viewBox="0 0 52.927 59.168">
  <path id="Path_62" data-name="Path 62" d="M352,27.45v-11.9a5.547,5.547,0,0,1,11.094,0v9.592a2.311,2.311,0,0,1-2.311,2.311Zm0,0" transform="translate(-311.319 -8.844)" fill="#bbf7d0"/>
  <path id="Path_63" data-name="Path 63" d="M55.069,10H15.547A5.547,5.547,0,0,0,10,15.547V58.3a2.311,2.311,0,0,0,2.311,2.311h37.21V15.547A5.547,5.547,0,0,1,55.069,10" transform="translate(-8.844 -8.844)" fill="#fff"/>
  <path id="Path_64" data-name="Path 64" d="M246.1,221.369l-1.7-4.08a11.7,11.7,0,0,1-.9-4.5v-8.96a2.451,2.451,0,0,1,4.776-.775l1.742,5.225a3.089,3.089,0,0,0,6.02-.977V184.7l3.517,3.51a15.712,15.712,0,0,1,4.612,11.119v12.284a22.766,22.766,0,0,1-2.2,9.754" transform="translate(-215.361 -163.358)" fill="#bbf7d0"/>
  <g id="Group_25" data-name="Group 25" transform="translate(7.358 7.396)">
    <path id="Path_65" data-name="Path 65" d="M69.908,71.4H64.824a1.156,1.156,0,0,1-1.156-1.156V65.156A1.156,1.156,0,0,1,64.824,64h5.085a1.156,1.156,0,0,1,1.156,1.156V70.24A1.156,1.156,0,0,1,69.908,71.4Zm0,0" transform="translate(-63.668 -64)" fill="#bbf7d0"/>
    <path id="Path_66" data-name="Path 66" d="M69.908,191.4H64.824a1.156,1.156,0,0,1-1.156-1.156v-5.085A1.156,1.156,0,0,1,64.824,184h5.085a1.156,1.156,0,0,1,1.156,1.156v5.085A1.156,1.156,0,0,1,69.908,191.4Zm0,0" transform="translate(-63.668 -170.133)" fill="#bbf7d0"/>
    <path id="Path_67" data-name="Path 67" d="M69.908,311.4H64.824a1.156,1.156,0,0,1-1.156-1.156v-5.084A1.156,1.156,0,0,1,64.824,304h5.085a1.156,1.156,0,0,1,1.156,1.156v5.084A1.156,1.156,0,0,1,69.908,311.4Zm0,0" transform="translate(-63.668 -276.265)" fill="#bbf7d0"/>
  </g>
  <path id="Path_68" data-name="Path 68" d="M46.224,0H6.7A6.71,6.71,0,0,0,0,6.7V49.46a3.471,3.471,0,0,0,3.467,3.467H18.644a1.156,1.156,0,1,0,0-2.311H3.467A1.157,1.157,0,0,1,2.311,49.46V6.7A4.4,4.4,0,0,1,6.7,2.311H41.167A6.674,6.674,0,0,0,39.522,6.7V43.944a1.934,1.934,0,0,1-3.768.612L34.012,39.33a3.607,3.607,0,0,0-7.028,1.14v.9h-5.99a1.156,1.156,0,1,0,0,2.311h5.99v5.749a12.787,12.787,0,0,0,.989,4.945l1.7,4.08a1.156,1.156,0,1,0,2.133-.889l-1.7-4.08a10.492,10.492,0,0,1-.811-4.056V40.471a1.3,1.3,0,0,1,2.525-.41l1.742,5.226a4.245,4.245,0,0,0,8.272-1.342V24.131l1.544,1.541a14.457,14.457,0,0,1,4.273,10.3V48.258a21.746,21.746,0,0,1-2.084,9.258,1.156,1.156,0,0,0,2.088.99,24.072,24.072,0,0,0,2.307-10.249V35.974A16.754,16.754,0,0,0,45.01,24.036l-3.177-3.171v-1.1H49.46a3.471,3.471,0,0,0,3.467-3.467V6.7a6.71,6.71,0,0,0-6.7-6.7Zm4.391,16.294A1.157,1.157,0,0,1,49.46,17.45H41.833V6.7a4.391,4.391,0,0,1,8.783,0Zm0,0"/>
  <path id="Path_69" data-name="Path 69" d="M196.156,438a1.156,1.156,0,1,0,.817.339A1.164,1.164,0,0,0,196.156,438Zm0,0" transform="translate(-172.465 -387.38)"/>
  <path id="Path_70" data-name="Path 70" d="M63.375,56.311A2.314,2.314,0,0,0,61.064,54H55.979a2.314,2.314,0,0,0-2.311,2.311V61.4a2.314,2.314,0,0,0,2.311,2.311h5.085A2.314,2.314,0,0,0,63.375,61.4ZM61.064,61.4H55.979V56.311h5.085V61.4Zm0,0" transform="translate(-47.466 -47.76)"/>
  <path id="Path_71" data-name="Path 71" d="M63.375,176.311A2.314,2.314,0,0,0,61.064,174H55.979a2.314,2.314,0,0,0-2.311,2.311V181.4a2.314,2.314,0,0,0,2.311,2.311h5.085a2.314,2.314,0,0,0,2.311-2.311ZM61.064,181.4H55.979v-5.085h5.085V181.4Zm0,0" transform="translate(-47.466 -153.892)"/>
  <path id="Path_72" data-name="Path 72" d="M61.064,294H55.979a2.313,2.313,0,0,0-2.311,2.311V301.4a2.313,2.313,0,0,0,2.311,2.311h5.085a2.314,2.314,0,0,0,2.311-2.311v-5.084A2.314,2.314,0,0,0,61.064,294Zm0,7.4H55.979v-5.084h5.085V301.4Zm0,0" transform="translate(-47.466 -260.025)"/>
  <path id="Path_73" data-name="Path 73" d="M226.517,120.311a1.156,1.156,0,0,0,0-2.311H218.55a1.156,1.156,0,1,0,0,2.311Zm0,0" transform="translate(-192.272 -104.364)"/>
  <path id="Path_74" data-name="Path 74" d="M172.824,120.311a1.156,1.156,0,1,0-.817-.339A1.164,1.164,0,0,0,172.824,120.311Zm0,0" transform="translate(-151.83 -104.364)"/>
  <path id="Path_75" data-name="Path 75" d="M172.82,240.311h13.251a1.156,1.156,0,0,0,0-2.311H172.82a1.156,1.156,0,0,0,0,2.311Zm0,0" transform="translate(-151.826 -210.496)"/>
</svg>
