<svg width="36" height="42" viewBox="0 0 36 42" fill="none" xmlns="http://www.w3.org/2000/svg">
<g id="Group 18">
<path id="Vector" d="M27.1475 29.0317H27.1475C28.2846 29.0304 29.3747 28.5781 30.1787 27.7741C30.9827 26.97 31.435 25.8799 31.4363 24.7429V24.7428C31.4363 23.8945 31.1848 23.0653 30.7135 22.36C30.2423 21.6547 29.5724 21.105 28.7887 20.7804C28.0051 20.4558 27.1427 20.3709 26.3107 20.5363C25.4788 20.7018 24.7146 21.1103 24.1148 21.7101C23.515 22.3099 23.1065 23.0741 22.941 23.9061C22.7755 24.738 22.8605 25.6004 23.1851 26.3841C23.5097 27.1678 24.0594 27.8376 24.7647 28.3089C25.47 28.7801 26.2992 29.0317 27.1475 29.0317ZM25.3906 22.1136C25.9106 21.7662 26.522 21.5807 27.1474 21.5807C27.9858 21.5816 28.7896 21.915 29.3825 22.5079C29.9753 23.1007 30.3088 23.9045 30.3098 24.7429C30.3098 25.3683 30.1244 25.9797 29.7769 26.4997C29.4295 27.0198 28.9356 27.4252 28.3578 27.6645C27.7799 27.9039 27.1441 27.9666 26.5306 27.8446C25.9172 27.7226 25.3537 27.4214 24.9114 26.9791C24.4692 26.5369 24.168 25.9734 24.0459 25.36C23.9239 24.7466 23.9865 24.1107 24.2259 23.5329C24.4652 22.955 24.8705 22.4611 25.3906 22.1136Z" fill="#0B744C" stroke="#0B744C" stroke-width="0.15"/>
<path id="Vector_2" d="M5.88525 12.9758H9.66143C9.81082 12.9758 9.95409 12.9164 10.0597 12.8108C10.1654 12.7052 10.2247 12.5619 10.2247 12.4125V8.63672C10.2247 8.48733 10.1654 8.34405 10.0597 8.23842C9.95409 8.13278 9.81082 8.07344 9.66143 8.07344H5.88525C5.73586 8.07344 5.59259 8.13278 5.48695 8.23842C5.38132 8.34405 5.32197 8.48733 5.32197 8.63672V12.4125C5.32197 12.5619 5.38132 12.7052 5.48695 12.8108C5.59259 12.9164 5.73586 12.9758 5.88525 12.9758ZM9.09814 9.2V11.8492H6.44854V9.2H9.09814Z" fill="#0B744C" stroke="#0B744C" stroke-width="0.15"/>
<path id="Vector_3" d="M10.2247 19.2487V19.2486V15.4727C10.2247 15.3233 10.1654 15.18 10.0597 15.0744C9.95409 14.9687 9.81082 14.9094 9.66143 14.9094H5.88525C5.73586 14.9094 5.59259 14.9687 5.48695 15.0744C5.38132 15.18 5.32197 15.3233 5.32197 15.4727V19.2484C5.32197 19.3978 5.38132 19.5411 5.48695 19.6467C5.59259 19.7524 5.73586 19.8117 5.88525 19.8117H9.66143C9.81078 19.8117 9.95402 19.7524 10.0596 19.6468C10.1653 19.5412 10.2246 19.398 10.2247 19.2487ZM9.09814 16.0359V18.6852H6.44854V16.0359H9.09814Z" fill="#0B744C" stroke="#0B744C" stroke-width="0.15"/>
<path id="Vector_4" d="M10.2247 26.0846V26.0846V22.3086C10.2247 22.1592 10.1654 22.0159 10.0597 21.9103C9.95409 21.8047 9.81082 21.7453 9.66143 21.7453H5.88525C5.73586 21.7453 5.59259 21.8047 5.48695 21.9103C5.38132 22.0159 5.32197 22.1592 5.32197 22.3086V26.0844C5.32197 26.2338 5.38132 26.377 5.48695 26.4827C5.59259 26.5883 5.73586 26.6477 5.88525 26.6477H9.66143C9.81078 26.6477 9.95402 26.5883 10.0596 26.4828C10.1653 26.3772 10.2246 26.234 10.2247 26.0846ZM9.09814 22.8719V25.5211H6.44854V22.8719H9.09814Z" fill="#0B744C" stroke="#0B744C" stroke-width="0.15"/>
<path id="Vector_5" d="M10.2247 32.9205V32.9205V29.1445C10.2247 28.9951 10.1654 28.8519 10.0597 28.7462C9.95409 28.6406 9.81082 28.5812 9.66143 28.5812H5.88525C5.73586 28.5812 5.59259 28.6406 5.48695 28.7462C5.38132 28.8519 5.32197 28.9951 5.32197 29.1445V32.9203C5.32197 33.0697 5.38132 33.213 5.48695 33.3186C5.59259 33.4243 5.73586 33.4836 5.88525 33.4836H9.66143C9.81078 33.4836 9.95402 33.4243 10.0596 33.3187C10.1653 33.2131 10.2246 33.0699 10.2247 32.9205ZM9.09814 29.7078V32.357H6.44854V29.7078H9.09814Z" fill="#0B744C" stroke="#0B744C" stroke-width="0.15"/>
<path id="Vector_6" d="M33.3909 39.6366C33.6656 39.362 33.8202 38.9897 33.8209 38.6012V16.681C33.8202 16.2926 33.6656 15.9202 33.3909 15.6456C33.1163 15.3709 32.744 15.2163 32.3556 15.2156C32.3556 15.2156 32.3556 15.2156 32.3555 15.2156H21.9387L21.9387 15.2156M33.3909 39.6366L20.3984 16.6809C20.3989 16.2725 20.5613 15.881 20.85 15.5922C21.1388 15.3034 21.5303 15.141 21.9387 15.1406V15.2156M33.3909 39.6366C33.1163 39.9113 32.744 40.0659 32.3555 40.0666H21.9387M33.3909 39.6366L21.9387 40.0666M21.9387 15.2156C21.5502 15.216 21.1777 15.3705 20.9031 15.6452C20.6284 15.9199 20.4739 16.2924 20.4734 16.6809M21.9387 15.2156L20.4734 16.6809M20.4734 16.6809L20.4734 16.6809V38.6013L20.4734 38.6014M20.4734 16.6809L21.9387 40.1416C21.5303 40.1412 21.1388 39.9788 20.85 39.69C20.5613 39.4013 20.3989 39.0097 20.3984 38.6014H20.4734M20.4734 38.6014C20.4739 38.9898 20.6284 39.3623 20.9031 39.637C21.1778 39.9117 21.5502 40.0662 21.9387 40.0666M20.4734 38.6014L21.9387 40.0666M32.3557 14.0891H32.3557L21.9387 14.0891L21.9386 14.0891C21.2515 14.0898 20.5927 14.3631 20.1068 14.849C19.6209 15.3349 19.3476 15.9936 19.3469 16.6808V16.6809L19.3469 38.6014L19.3469 38.6014C19.3476 39.2886 19.6209 39.9474 20.1068 40.4332C20.5927 40.9191 21.2515 41.1924 21.9386 41.1932H21.9387H32.3557H32.3557C33.0429 41.1924 33.7017 40.9191 34.1875 40.4332C34.6734 39.9474 34.9467 39.2886 34.9475 38.6014V38.6014V16.6809V16.6808C34.9467 15.9936 34.6734 15.3349 34.1875 14.849C33.7017 14.3631 33.0429 14.0898 32.3557 14.0891Z" fill="#0B744C" stroke="#0B744C" stroke-width="0.15"/>
<path id="Vector_7" d="M28.8238 37.2274H25.5107C25.3614 37.2274 25.2181 37.2867 25.1124 37.3923C25.0068 37.498 24.9475 37.6413 24.9475 37.7906C24.9475 37.94 25.0068 38.0833 25.1124 38.1889C25.2181 38.2946 25.3614 38.3539 25.5107 38.3539H28.8238C28.9732 38.3539 29.1165 38.2946 29.2221 38.1889C29.3278 38.0833 29.3871 37.94 29.3871 37.7906C29.3871 37.6413 29.3278 37.498 29.2221 37.3923C29.1165 37.2867 28.9732 37.2274 28.8238 37.2274Z" fill="#0B744C" stroke="#0B744C" stroke-width="0.15"/>
<path id="Vector_8" d="M26.3598 26.0705L26.3598 26.0706C26.4097 26.1315 26.4717 26.1813 26.542 26.2168C26.6123 26.2522 26.6892 26.2726 26.7679 26.2765L26.7679 26.2766H26.7716H26.7716H26.7717H26.7717H26.7718H26.7718H26.7719H26.7719H26.772H26.772H26.7721H26.7721H26.7721H26.7722H26.7722H26.7723H26.7723H26.7724H26.7724H26.7725H26.7725H26.7726H26.7726H26.7727H26.7727H26.7728H26.7728H26.7729H26.7729H26.7729H26.773H26.773H26.7731H26.7731H26.7732H26.7732H26.7733H26.7733H26.7734H26.7734H26.7735H26.7735H26.7736H26.7736H26.7737H26.7737H26.7737H26.7738H26.7738H26.7739H26.7739H26.774H26.774H26.7741H26.7741H26.7742H26.7742H26.7743H26.7743H26.7744H26.7744H26.7745H26.7745H26.7745H26.7746H26.7746H26.7747H26.7747H26.7748H26.7748H26.7749H26.7749H26.775H26.775H26.7751H26.7751H26.7752H26.7752H26.7753H26.7753H26.7754H26.7754H26.7754H26.7755H26.7755H26.7756H26.7756H26.7757H26.7757H26.7758H26.7758H26.7759H26.7759H26.776H26.776H26.7761H26.7761H26.7762H26.7762H26.7763H26.7763H26.7763H26.7764H26.7764H26.7765H26.7765H26.7766H26.7766H26.7767H26.7767H26.7768H26.7768H26.7769H26.7769H26.777H26.777H26.7771H26.7771H26.7771H26.7772H26.7772H26.7773H26.7773H26.7774H26.7774H26.7775H26.7775H26.7776H26.7776H26.7777H26.7777H26.7778H26.7778H26.7779H26.7779H26.778H26.778H26.778H26.7781H26.7781H26.7782H26.7782H26.7783H26.7783H26.7784H26.7784H26.7785H26.7785H26.7786H26.7786H26.7787H26.7787H26.7788H26.7788H26.7789H26.7789H26.7789H26.779H26.779H26.7791H26.7791H26.7792H26.7792H26.7793H26.7793H26.7794H26.7794H26.7795H26.7795H26.7796H26.7796H26.7797H26.7797H26.7798H26.7798H26.7799H26.7799H26.7799H26.78H26.78H26.7801H26.7801H26.7802H26.7802H26.7803H26.7803H26.7804H26.7804H26.7805H26.7805H26.7806H26.7806H26.7807H26.7807H26.7808H26.7808H26.7808H26.7809H26.7809H26.781H26.781H26.7811H26.7811H26.7812H26.7812H26.7813H26.7813H26.7814H26.7814H26.7815H26.7815H26.7816H26.7816H26.7817H26.7817H26.7817H26.7818H26.7818H26.7819H26.7819H26.782H26.782H26.7821H26.7821H26.7822H26.7822H26.7823H26.7823H26.7824H26.7824H26.7825H26.7825H26.7826H26.7826H26.7827H26.7827H26.7827H26.7828H26.7828H26.7829H26.7829H26.783H26.783H26.7831H26.7831H26.7832H26.7832H26.7833H26.7833H26.7834H26.7834H26.7835H26.7835H26.7836H26.7836H26.7836H26.7837H26.7837H26.7838H26.7838H26.7839H26.7839H26.784H26.784H26.7841H26.7841H26.7842H26.7842H26.7843H26.7843H26.7844H26.7844H26.7845H26.7845H26.7846H26.7846H26.7846H26.7847H26.7847H26.7848H26.7848H26.7849H26.7849H26.785H26.785H26.7851H26.7851H26.7852H26.7852H26.7853H26.7853H26.7854H26.7854H26.7855H26.7855H26.7855H26.7856H26.7856H26.7857H26.7857H26.7858H26.7858H26.7859H26.7859H26.786H26.786H26.7861H26.7861H26.7862H26.7862H26.7863H26.7863H26.7864H26.7864H26.7865H26.7865H26.7865H26.7866H26.7866H26.7867H26.7867H26.7868H26.7868H26.7869H26.7869H26.787H26.787H26.7871H26.7871H26.7872H26.7872H26.7873H26.7873H26.7874H26.7874H26.7874H26.7875H26.7875H26.7876H26.7876H26.7877H26.7877H26.7878H26.7878H26.7879H26.7879H26.788H26.788H26.7881H26.7881H26.7882H26.7882H26.7883H26.7883H26.7883H26.7884H26.7884H26.7885H26.7885H26.7886H26.7886H26.7887H26.7887H26.7888H26.7888H26.7889H26.7889H26.789H26.789H26.7891H26.7891H26.7892H26.7892H26.7892H26.7893H26.7893H26.7894H26.7894H26.7895H26.7895H26.7896H26.7896H26.7897H26.7897H26.7898H26.7898H26.7899H26.7899H26.79H26.79H26.7901H26.7901H26.7901H26.7902H26.7902H26.7903H26.7903H26.7904H26.7904H26.7905H26.7905H26.7906H26.7906H26.7907H26.7907H26.7908H26.7908H26.7909H26.7909H26.791H26.791H26.791H26.7911H26.7911H26.7912H26.7912H26.7913H26.7913H26.7914H26.7914H26.7915H26.7915H26.7916H26.7916H26.7917H26.7917H26.7918H26.7918H26.7919H26.7919H26.7919H26.792H26.792H26.7921H26.7921H26.7922H26.7922H26.7923H26.7923H26.7924H26.7924H26.7925H26.7925H26.7926H26.7926H26.7927H26.7927H26.7927H26.7928H26.7928H26.7929H26.7929H26.793H26.793H26.7931H26.7931H26.7932H26.7932H26.7933H26.7933H26.7934H26.7934H26.7935H26.7935H26.7935H26.7936H26.7936H26.7937H26.7937H26.7938H26.7938H26.7939H26.7939H26.794H26.794H26.7941H26.7941H26.7942H26.7942H26.7943H26.7943H26.7943H26.7944H26.7944H26.7945H26.7945H26.7946H26.7946H26.7947H26.7947H26.7948H26.7948H26.7949H26.7949H26.795H26.795H26.7951H26.7951H26.7951H26.7952H26.7952H26.7953H26.7953H26.7954H26.7954H26.7955H26.7955H26.7956H26.7956H26.7957H26.7957H26.7958H26.7958H26.7958C26.8698 26.2766 26.9431 26.262 27.0114 26.2336C27.0798 26.2053 27.1419 26.1638 27.1941 26.1115C27.1942 26.1114 27.1942 26.1114 27.1942 26.1114L28.9926 24.3132L28.9926 24.3132L28.9935 24.3123C29.0961 24.206 29.1529 24.0638 29.1516 23.9161C29.1503 23.7684 29.0911 23.6271 28.9866 23.5227C28.8822 23.4182 28.7409 23.359 28.5932 23.3577C28.4455 23.3564 28.3033 23.4132 28.197 23.5158L28.197 23.5158L28.1961 23.5167L26.8377 24.8749L26.2509 24.1578C26.2509 24.1578 26.2509 24.1578 26.2509 24.1578C26.1563 24.0422 26.0197 23.9689 25.871 23.954C25.7224 23.9391 25.5739 23.9839 25.4583 24.0785C25.3426 24.1731 25.2693 24.3097 25.2545 24.4584C25.2396 24.607 25.2844 24.7555 25.379 24.8711C25.379 24.8711 25.379 24.8711 25.379 24.8711L26.3598 26.0705Z" fill="#0B744C" stroke="#0B744C" stroke-width="0.15"/>
<path id="Vector_9" d="M17.9568 37.2275H2.17852V4.00469H6.76406C6.91345 4.00469 7.05673 3.94534 7.16236 3.83971C7.268 3.73407 7.32734 3.5908 7.32734 3.44141C7.32734 3.29201 7.268 3.14874 7.16236 3.04311C7.05673 2.93747 6.91345 2.87812 6.76406 2.87812H1.61523C1.46584 2.87812 1.32257 2.93747 1.21693 3.04311C1.1113 3.14874 1.05195 3.29201 1.05195 3.44141V37.7908C1.05195 37.9402 1.1113 38.0835 1.21693 38.1891C1.32257 38.2948 1.46585 38.3541 1.61523 38.3541H17.9568C18.1062 38.3541 18.2495 38.2948 18.3551 38.1891C18.4608 38.0835 18.5201 37.9402 18.5201 37.7908C18.5201 37.6414 18.4608 37.4982 18.3551 37.3925C18.2495 37.2869 18.1062 37.2275 17.9568 37.2275Z" fill="#0B744C" stroke="#0B744C" stroke-width="0.15"/>
<path id="Vector_10" d="M21.9985 4.00469H26.5841V12.4125C26.5841 12.5619 26.6434 12.7052 26.7491 12.8108C26.8547 12.9164 26.998 12.9758 27.1474 12.9758C27.2968 12.9758 27.44 12.9164 27.5457 12.8108C27.6513 12.7052 27.7106 12.5619 27.7106 12.4125V3.44141C27.7106 3.29201 27.6513 3.14874 27.5457 3.04311C27.44 2.93747 27.2968 2.87812 27.1474 2.87812H21.9985C21.8491 2.87812 21.7059 2.93747 21.6002 3.04311C21.4946 3.14874 21.4353 3.29201 21.4353 3.44141C21.4353 3.5908 21.4946 3.73407 21.6002 3.83971C21.7059 3.94534 21.8491 4.00469 21.9985 4.00469Z" fill="#0B744C" stroke="#0B744C" stroke-width="0.15"/>
<path id="Vector_11" d="M9.69377 6.075H9.69385H19.0688H19.0689C19.4772 6.07457 19.8686 5.9122 20.1572 5.62353C20.4459 5.33487 20.6083 4.94347 20.6087 4.53524V4.53516V2.34766V2.34758C20.6083 1.93934 20.4459 1.54795 20.1572 1.25928C19.8686 0.970611 19.4772 0.808247 19.0689 0.807812H19.0688L9.69385 0.807812L9.69377 0.807813C9.28553 0.808247 8.89414 0.970611 8.60547 1.25928C8.3168 1.54795 8.15444 1.93934 8.154 2.34758V2.34766L8.154 4.53516L8.154 4.53524C8.15444 4.94347 8.3168 5.33487 8.60547 5.62353C8.89414 5.9122 9.28553 6.07457 9.69377 6.075ZM9.28057 2.34766C9.28057 2.23805 9.32411 2.13293 9.40161 2.05542C9.47912 1.97792 9.58424 1.93438 9.69385 1.93438H19.0688C19.1785 1.93438 19.2836 1.97792 19.3611 2.05542C19.4386 2.13293 19.4821 2.23805 19.4821 2.34766V4.53516C19.4821 4.64476 19.4386 4.74988 19.3611 4.82739C19.2836 4.9049 19.1785 4.94844 19.0688 4.94844H9.69385C9.58424 4.94844 9.47912 4.9049 9.40161 4.82739C9.32411 4.74988 9.28057 4.64477 9.28057 4.53516V2.34766Z" fill="#0B744C" stroke="#0B744C" stroke-width="0.15"/>
<path id="Vector_12" d="M12.6563 9.96132C12.5069 9.96132 12.3636 10.0207 12.2579 10.1263C12.1523 10.2319 12.093 10.3752 12.093 10.5246C12.093 10.674 12.1523 10.8173 12.2579 10.9229C12.3636 11.0285 12.5069 11.0879 12.6563 11.0879H22.8775C23.0269 11.0879 23.1702 11.0285 23.2758 10.9229C23.3815 10.8173 23.4408 10.674 23.4408 10.5246C23.4408 10.3752 23.3815 10.2319 23.2758 10.1263C23.1702 10.0207 23.0269 9.96132 22.8775 9.96132H12.6563Z" fill="#0B744C" stroke="#0B744C" stroke-width="0.15"/>
<path id="Vector_13" d="M17.957 16.7973H12.6562C12.5069 16.7973 12.3636 16.8566 12.2579 16.9622C12.1523 17.0679 12.093 17.2111 12.093 17.3605C12.093 17.5099 12.1523 17.6532 12.2579 17.7588C12.3636 17.8645 12.5069 17.9238 12.6562 17.9238H17.957C18.1064 17.9238 18.2497 17.8645 18.3553 17.7588C18.461 17.6532 18.5203 17.5099 18.5203 17.3605C18.5203 17.2111 18.461 17.0679 18.3553 16.9622C18.2497 16.8566 18.1064 16.7973 17.957 16.7973Z" fill="#0B744C" stroke="#0B744C" stroke-width="0.15"/>
<path id="Vector_14" d="M17.957 23.6332H12.6562C12.5069 23.6332 12.3636 23.6925 12.2579 23.7982C12.1523 23.9038 12.093 24.0471 12.093 24.1965C12.093 24.3459 12.1523 24.4891 12.2579 24.5948C12.3636 24.7004 12.5069 24.7598 12.6562 24.7598H17.957C18.1064 24.7598 18.2497 24.7004 18.3553 24.5948C18.461 24.4891 18.5203 24.3459 18.5203 24.1965C18.5203 24.0471 18.461 23.9038 18.3553 23.7982C18.2497 23.6925 18.1064 23.6332 17.957 23.6332Z" fill="#0B744C" stroke="#0B744C" stroke-width="0.15"/>
<path id="Vector_15" d="M17.957 30.4691H12.6562C12.5069 30.4691 12.3636 30.5285 12.2579 30.6341C12.1523 30.7397 12.093 30.883 12.093 31.0324C12.093 31.1818 12.1523 31.3251 12.2579 31.4307C12.3636 31.5363 12.5069 31.5957 12.6562 31.5957H17.957C18.1064 31.5957 18.2497 31.5363 18.3553 31.4307C18.461 31.3251 18.5203 31.1818 18.5203 31.0324C18.5203 30.883 18.461 30.7397 18.3553 30.6341C18.2497 30.5285 18.1064 30.4691 17.957 30.4691Z" fill="#0B744C" stroke="#0B744C" stroke-width="0.15"/>
</g>
</svg>
