<svg xmlns="http://www.w3.org/2000/svg" width="43.842" height="44.245" viewBox="0 0 43.842 44.245">
  <path id="claims" d="M21.71,20.15a9.455,9.455,0,0,0,8.068,4.463,9.588,9.588,0,0,0,.713-19.15A9.585,9.585,0,1,0,21.71,20.15Zm14.709-5.13a6.649,6.649,0,0,1-6.641,6.641,6.554,6.554,0,0,1-4.618-1.885A9.579,9.579,0,0,0,31.807,8.729,6.627,6.627,0,0,1,36.419,15.02ZM22.4,3.952a6.637,6.637,0,0,1,.094,13.273c-.016,0-.032,0-.05,0s-.03,0-.044,0a6.641,6.641,0,0,1,0-13.282ZM42.721,26.608a4.074,4.074,0,0,0-4.184.109l-8.086,5.055A1.464,1.464,0,0,1,29.67,32H25.835a4.45,4.45,0,0,0,.091-2.671,4.5,4.5,0,0,0-4.387-3.232H14.281a4.369,4.369,0,0,0-2.169.592,4.418,4.418,0,0,0-3.734-2.071H5.426A4.433,4.433,0,0,0,1,29.041V40.818a4.433,4.433,0,0,0,4.427,4.427H8.378A4.416,4.416,0,0,0,12.1,43.2a4.38,4.38,0,0,0,2.184.6H29.425A4.43,4.43,0,0,0,32.3,42.739L43.8,32.921l.221-.236a4.518,4.518,0,0,0,.825-2.473,4.07,4.07,0,0,0-2.122-3.6ZM9.855,30.518v10.3a1.477,1.477,0,0,1-1.476,1.476H5.428a1.477,1.477,0,0,1-1.476-1.476V29.041a1.477,1.477,0,0,1,1.476-1.476H8.379a1.477,1.477,0,0,1,1.476,1.476V30.52Zm31.859.3L30.386,40.495a1.476,1.476,0,0,1-.959.354H14.282a1.477,1.477,0,0,1-1.476-1.476V30.518a1.477,1.477,0,0,1,1.476-1.476H21.54A1.567,1.567,0,0,1,23.08,30.1a1.487,1.487,0,0,1-1.418,1.893H17.234a1.476,1.476,0,1,0,0,2.952H29.67a4.425,4.425,0,0,0,2.346-.673L40.1,29.218a1.17,1.17,0,0,1,1.79.992,1.9,1.9,0,0,1-.177.608Z" transform="translate(-0.999 -1)"/>
</svg>
