<svg width="40" height="40" viewBox="0 0 40 40" fill="none" xmlns="http://www.w3.org/2000/svg">
<path d="M38.71 7.925C38.7031 7.905 38.6981 7.88563 38.6894 7.86625C38.659 7.79825 38.6166 7.73623 38.5644 7.68313L32.3144 1.43312C32.2611 1.38082 32.1989 1.33848 32.1306 1.30812C32.1119 1.3 32.0938 1.295 32.0744 1.28813C32.021 1.26953 31.9652 1.25858 31.9088 1.25563C31.8988 1.25625 31.8875 1.25 31.875 1.25H14.375C14.2092 1.25 14.0503 1.31585 13.9331 1.43306C13.8158 1.55027 13.75 1.70924 13.75 1.875V13.75H15V2.5H31.25V8.125C31.25 8.29076 31.3158 8.44973 31.4331 8.56694C31.5503 8.68415 31.7092 8.75 31.875 8.75H37.5V33.75H24.375V35H38.125C38.2908 35 38.4497 34.9342 38.5669 34.8169C38.6842 34.6997 38.75 34.5408 38.75 34.375V8.125C38.75 8.11125 38.7431 8.09938 38.7419 8.08563C38.7388 8.03086 38.728 7.9768 38.71 7.925ZM32.5 7.5V3.38375L36.6162 7.5H32.5Z" fill="#0B744C"/>
<path d="M3.28125 38.75H21.7188C22.096 38.75 22.4658 38.645 22.7866 38.4466C23.1075 38.2483 23.3669 37.9646 23.5356 37.6272C23.7043 37.2898 23.7757 36.912 23.7418 36.5363C23.7079 36.1606 23.5701 35.8018 23.3438 35.5L21.875 33.5419V26.3875C21.8834 24.7446 21.3694 23.1415 20.4073 21.8097C19.4453 20.478 18.0849 19.4864 16.5225 18.9781L18.0625 15.9044C18.1102 15.8088 18.1327 15.7026 18.1277 15.5959C18.1228 15.4893 18.0906 15.3856 18.0341 15.2949C17.9777 15.2042 17.899 15.1295 17.8055 15.0778C17.712 15.0262 17.6068 14.9994 17.5 15H7.5C7.39345 15 7.28866 15.0271 7.19558 15.079C7.1025 15.1308 7.02422 15.2056 6.96817 15.2962C6.91212 15.3869 6.88017 15.4903 6.87535 15.5967C6.87053 15.7032 6.893 15.8091 6.94063 15.9044L8.4775 18.9781C6.91515 19.4864 5.55473 20.478 4.59265 21.8097C3.63058 23.1415 3.11663 24.7446 3.125 26.3875V33.5419L1.65625 35.5C1.42991 35.8018 1.29209 36.1606 1.25821 36.5363C1.22433 36.912 1.29574 37.2898 1.46445 37.6272C1.63315 37.9646 1.89247 38.2483 2.21336 38.4466C2.53425 38.645 2.90402 38.75 3.28125 38.75ZM16.4888 16.25L15.2388 18.75H9.76125L8.51125 16.25H16.4888ZM2.65625 36.25L4.25 34.125C4.33114 34.0168 4.375 33.8852 4.375 33.75V26.3875C4.36766 24.9049 4.86597 23.4642 5.78769 22.3029C6.70941 21.1417 7.99947 20.3294 9.445 20H15.555C17.0005 20.3294 18.2906 21.1417 19.2123 22.3029C20.134 23.4642 20.6323 24.9049 20.625 26.3875V33.75C20.625 33.8852 20.6689 34.0168 20.75 34.125L22.3438 36.25C22.4308 36.3661 22.4838 36.5041 22.4968 36.6486C22.5099 36.7931 22.4824 36.9384 22.4175 37.0681C22.3526 37.1979 22.2529 37.3071 22.1295 37.3833C22.0061 37.4596 21.8638 37.5 21.7188 37.5H3.28125C3.13616 37.5 2.99394 37.4596 2.87052 37.3833C2.7471 37.3071 2.64736 37.1979 2.58248 37.0681C2.51759 36.9384 2.49013 36.7931 2.50316 36.6486C2.51619 36.5041 2.5692 36.3661 2.65625 36.25Z" fill="#0B744C"/>
<path d="M11.5625 29.375H13.4375C13.6861 29.375 13.9246 29.4738 14.1004 29.6496C14.2762 29.8254 14.375 30.0639 14.375 30.3125C14.375 30.5611 14.2762 30.7996 14.1004 30.9754C13.9246 31.1512 13.6861 31.25 13.4375 31.25H10V32.5H11.875V33.75H13.125V32.5H13.4375C14.0177 32.5 14.5741 32.2695 14.9843 31.8593C15.3945 31.4491 15.625 30.8927 15.625 30.3125C15.625 29.7323 15.3945 29.1759 14.9843 28.7657C14.5741 28.3555 14.0177 28.125 13.4375 28.125H11.5625C11.3139 28.125 11.0754 28.0262 10.8996 27.8504C10.7238 27.6746 10.625 27.4361 10.625 27.1875C10.625 26.9389 10.7238 26.7004 10.8996 26.5246C11.0754 26.3488 11.3139 26.25 11.5625 26.25H15V25H13.125V23.75H11.875V25H11.5625C10.9823 25 10.4259 25.2305 10.0157 25.6407C9.60547 26.0509 9.375 26.6073 9.375 27.1875C9.375 27.7677 9.60547 28.3241 10.0157 28.7343C10.4259 29.1445 10.9823 29.375 11.5625 29.375Z" fill="#0B744C"/>
<path d="M25.625 5.625C24.5435 5.62272 23.4916 5.27206 22.625 4.625L21.625 3.875C21.5168 3.79386 21.3852 3.75 21.25 3.75C21.1148 3.75 20.9832 3.79386 20.875 3.875L19.875 4.625C19.0084 5.27206 17.9565 5.62272 16.875 5.625C16.7092 5.625 16.5503 5.69085 16.4331 5.80806C16.3158 5.92527 16.25 6.08424 16.25 6.25V9.69875C16.2506 10.4703 16.4547 11.228 16.8418 11.8954C17.2288 12.5628 17.7851 13.1163 18.4544 13.5L20.9375 14.9175C21.0319 14.9714 21.1388 14.9998 21.2475 14.9998C21.3562 14.9998 21.4631 14.9714 21.5575 14.9175L24.0456 13.5C24.7149 13.1163 25.2712 12.5628 25.6582 11.8954C26.0453 11.228 26.2494 10.4703 26.25 9.69875V6.25C26.25 6.08424 26.1842 5.92527 26.0669 5.80806C25.9497 5.69085 25.7908 5.625 25.625 5.625ZM25 9.69875C24.9994 10.2495 24.8535 10.7903 24.5771 11.2667C24.3006 11.743 23.9035 12.138 23.4256 12.4119L21.25 13.655L19.0744 12.4119C18.5965 12.138 18.1994 11.743 17.9229 11.2667C17.6465 10.7903 17.5006 10.2495 17.5 9.69875V6.84313C18.6326 6.72695 19.7126 6.30599 20.625 5.625L21.25 5.15625L21.875 5.625C22.7874 6.30599 23.8674 6.72695 25 6.84313V9.69875Z" fill="#0B744C"/>
<path d="M21.875 6.875H20.625V8.125H21.875V6.875Z" fill="#0B744C"/>
<path d="M21.875 10.625H20.625V11.875H21.875V10.625Z" fill="#0B744C"/>
<path d="M20 8.69812H18.75V9.94812H20V8.69812Z" fill="#0B744C"/>
<path d="M23.75 8.75H22.5V10H23.75V8.75Z" fill="#0B744C"/>
<path d="M35 16.875H19.375V18.125H35V16.875Z" fill="#0B744C"/>
<path d="M28.125 20H21.875V21.25H28.125V20Z" fill="#0B744C"/>
<path d="M35 20H29.375V21.25H35V20Z" fill="#0B744C"/>
<path d="M35 23.125H23.75V24.375H35V23.125Z" fill="#0B744C"/>
<path d="M30.625 26.25H23.75V27.5H30.625V26.25Z" fill="#0B744C"/>
<path d="M35 26.25H31.875V27.5H35V26.25Z" fill="#0B744C"/>
<path d="M35 29.375H23.75V30.625H35V29.375Z" fill="#0B744C"/>
<path d="M35 13.75H28.75V15H35V13.75Z" fill="#0B744C"/>
<path d="M35 10.625H28.75V11.875H35V10.625Z" fill="#0B744C"/>
</svg>
