<svg width="60" height="60" viewBox="0 0 60 60" fill="none" xmlns="http://www.w3.org/2000/svg">
<path d="M33.75 13.1238C33.75 6.9217 28.7021 1.87384 22.5 1.87384C16.2979 1.87384 11.25 6.9217 11.25 13.1238C11.25 13.4381 11.261 13.7558 11.2811 14.0777C11.3361 15.3498 13.2541 15.2318 13.1525 13.9623C13.1347 13.6767 13.1232 13.3965 13.1232 13.1237C13.1232 7.93498 17.3094 3.74865 22.4982 3.74865C27.687 3.74865 31.8732 7.9349 31.8732 13.1237C31.8732 14.2843 31.7145 15.5488 31.4154 16.8609C31.2584 16.8786 31.0883 16.9058 30.9338 16.947V15.9362C30.9357 15.4183 30.5179 14.9969 30 14.995H28.125C26.0048 14.995 25.2594 12.8289 25.2594 12.8289C25.1279 12.4289 24.7462 12.1666 24.3256 12.1862C23.9381 12.2039 23.6027 12.4604 23.4815 12.8289C23.4815 12.8289 22.733 14.995 20.6232 14.995H14.9964C14.4784 14.9969 14.0605 15.4183 14.0625 15.9362V16.9396C12.1878 16.4836 10.3125 17.7998 10.3125 19.6716C10.3125 22.4132 12.2422 24.1284 14.534 24.348C15.0089 25.7109 15.8241 26.9083 16.875 27.849V32.813C16.8749 32.9136 16.891 33.0139 16.9227 33.1096C17.7959 35.2642 19.8491 36.563 22.5019 36.563C25.1547 36.563 27.2179 35.2559 28.0793 33.1096C28.1115 33.0139 28.1283 32.9136 28.1287 32.813V27.8527C29.1797 26.9134 29.9972 25.7161 30.4706 24.3535C32.6369 24.1335 34.6875 22.4769 34.6875 19.6706C34.6521 18.5883 34.05 17.747 33.2483 17.2765C33.5707 15.8601 33.75 14.4529 33.75 13.1238ZM41.2482 6.56314V7.49698H40.3143C38.7724 7.49698 37.4982 8.77302 37.4982 10.3149V16.8739C37.4982 22.255 41.6175 26.6657 46.875 27.1387V40.315C46.875 41.8892 45.6405 43.1238 44.0662 43.1238H43.0774C42.5979 36.8285 37.3566 31.8738 30.9375 31.8738C29.6703 31.856 29.6703 33.7661 30.9375 33.7488C36.3502 33.7488 40.7337 37.8408 41.2024 43.1238H31.7395C31.3199 41.5155 29.8641 40.315 28.1287 40.315C26.0687 40.315 24.3768 41.9977 24.3768 44.0577C24.3768 46.1176 26.0687 47.8094 28.1287 47.8094C29.8625 47.8094 31.3165 46.6065 31.7377 44.9988H44.0662C46.6468 44.9988 48.7518 42.8955 48.7518 40.315V27.1387C54.0065 26.6622 58.1287 22.2524 58.1287 16.8739V10.3149C58.1287 8.77302 56.8526 7.49698 55.3107 7.49698H54.3768V6.56314C54.3768 5.28737 52.5018 5.29372 52.5018 6.56314V10.3149C52.5288 11.5376 54.3498 11.5376 54.3768 10.3149V9.37385H55.3107C55.8463 9.37385 56.2537 9.77939 56.2537 10.3149V16.8739C56.2537 21.5644 52.4994 25.3113 47.8088 25.3113C43.1182 25.3113 39.3732 21.5644 39.3732 16.8739V10.3149C39.3732 9.77939 39.7787 9.37385 40.3143 9.37385H41.2482V10.3149C41.2482 11.5661 43.125 11.5661 43.125 10.3149V6.56314C43.125 5.32164 41.2482 5.27607 41.2482 6.56314ZM24.3768 15.0062C24.9728 15.808 26.1751 16.8702 28.1268 16.8702H29.0607V21.5632C29.0606 25.215 26.1519 28.1238 22.5 28.1238C18.8482 28.1238 15.9393 25.215 15.9393 21.5632V16.8702H20.625C22.5797 16.8702 23.7037 15.8505 24.3768 15.0062ZM30.8972 22.3615C30.9717 21.2755 30.9357 20.1736 30.9357 19.0454C31.633 18.3256 32.8089 18.9437 32.8052 19.7082C32.7984 21.1195 31.9455 22.0536 30.8972 22.3615ZM14.1046 22.3615C13.0564 22.0536 12.1967 21.1144 12.1967 19.7082C12.1967 18.7829 13.505 18.4188 14.0643 19.0418C14.0578 20.1243 14.048 21.3333 14.1046 22.3615ZM18.75 29.1235C19.8792 29.6832 21.1524 29.9988 22.5 29.9988C23.8487 29.9988 25.1211 29.6827 26.2518 29.1235V32.5842C26.2518 32.5842 25.4726 34.6881 22.5018 34.6881C19.5311 34.6881 18.75 32.5842 18.75 32.5842V29.1235ZM14.0625 31.8738C7.32683 31.8738 1.875 37.3257 1.875 44.0613V57.1863C1.87506 57.7041 2.29476 58.1238 2.8125 58.1238H9.4043H35.6543H42.1875C42.7052 58.1238 43.1249 57.7041 43.125 57.1863V47.8113C43.1427 46.5435 41.2321 46.5435 41.25 47.8113V50.6256H36.5643V47.8094C36.5643 46.4824 34.6893 46.5884 34.6893 47.8094V56.2488H10.3143V47.8094C10.3143 46.5446 8.43933 46.5418 8.43933 47.8094V50.6256H3.75V44.0613C3.75 38.3321 8.33317 33.7488 14.0625 33.7488C15.3297 33.7665 15.3297 31.8564 14.0625 31.8738ZM28.1287 42.1826C29.1753 42.1826 30.0037 43.011 30.0037 44.0577C30.0037 45.1043 29.1753 45.9344 28.1287 45.9344C27.082 45.9344 26.2518 45.1043 26.2518 44.0577C26.2518 43.011 27.082 42.1826 28.1287 42.1826ZM3.75 52.5024H8.43933V56.2488H3.75V52.5024ZM36.5643 52.5024H41.25V56.2488H36.5643V52.5024Z" fill="#1A6336"/>
</svg>
