<svg id="Layer_1" enable-background="new 0 0 512 512" viewBox="0 0 512 512" xmlns="http://www.w3.org/2000/svg"><g><path d="m138.26 456.85h78.97c3.87 0 7-3.13 7-7s-3.13-7-7-7h-78.97c-3.87 0-7 3.13-7 7s3.14 7 7 7z"/><path d="m479.39 148.55-42.43-52.61c-1.33-1.65-3.33-2.61-5.45-2.61h-107.07v-34.21c0-27.63-22.48-50.12-50.11-50.12h-193.16c-27.63 0-50.11 22.49-50.11 50.12v393.76c0 27.63 22.48 50.12 50.12 50.12h193.15c27.63 0 50.12-22.48 50.12-50.12v-126.48h149.5c3.87 0 7-3.13 7-7v-166.45c-.01-1.6-.55-3.15-1.56-4.4zm-56.67-41.21h5.44l30.89 38.3h-36.33zm-112.28 345.54c0 19.91-16.2 36.11-36.11 36.11h-193.16c-19.91 0-36.11-16.2-36.11-36.11v-42.18h265.38zm0-56.18h-265.38v-337.58c0-19.91 16.2-36.11 36.11-36.11h193.15c19.91 0 36.11 16.2 36.11 36.11v34.21h-27.23c-3.87 0-7 3.13-7 7v219.07c0 3.87 3.13 7 7 7h27.24zm156.5-84.3h-176.74v-205.06h118.52v45.3c0 3.87 3.13 7 7 7h48.02c1.16 0 2.24-.28 3.2-.78z"/><path d="m443.81 281.3h-18.23v-42.38c0-3.87-3.13-7-7-7s-7 3.13-7 7v42.38h-18.94v-25.91c0-3.87-3.13-7-7-7s-7 3.13-7 7v25.91h-25.11v-14.68c0-3.87-3.13-7-7-7s-7 3.13-7 7v14.68h-21.85c-3.87 0-7 3.13-7 7s3.13 7 7 7h126.14c3.87 0 7-3.13 7-7s-3.14-7-7.01-7z"/><path d="m315.2 139.03h62.76c3.87 0 7-3.13 7-7s-3.13-7-7-7h-62.76c-3.87 0-7 3.13-7 7s3.13 7 7 7z"/><path d="m377.96 163.01c3.87 0 7-3.13 7-7s-3.13-7-7-7h-62.76c-3.87 0-7 3.13-7 7s3.13 7 7 7z"/><path d="m389.76 206.98-59.78 34.5c-3.35 1.93-4.5 6.21-2.56 9.56 1.3 2.25 3.65 3.5 6.07 3.5 1.19 0 2.39-.3 3.49-.94l59.39-34.27c-.96 3.04.26 6.45 3.12 8.13 1.12.66 2.34.97 3.55.97 2.4 0 4.73-1.23 6.04-3.45l12.45-21.12c1.27-2.15 1.29-4.82.06-7s-3.53-3.53-6.03-3.56l-24.52-.23c-.02 0-.04 0-.07 0-3.84 0-6.96 3.09-7 6.94-.03 3.49 2.48 6.39 5.79 6.97z"/><path d="m177.75 123.92c-3.12 0-6.2.21-9.23.57-.11.01-.22.03-.33.04-38.19 4.72-67.86 37.35-67.86 76.8 0 42.7 34.73 77.44 77.41 77.44 37.78 0 69.3-27.22 76.06-63.08.13-.45.22-.93.25-1.42.71-4.21 1.1-8.53 1.1-12.95.01-42.67-34.71-77.4-77.4-77.4zm0 140.85c-34.96 0-63.41-28.46-63.41-63.44 0-29.6 20.38-54.52 47.85-61.47v73.89c0 3.87 3.13 7 7 7h68.92c-8.22 25.51-32.16 44.02-60.36 44.02zm63.16-58.02h-64.72v-68.79c.52-.01 1.04-.04 1.56-.04 34.96 0 63.41 28.45 63.41 63.41 0 1.83-.1 3.63-.25 5.42z"/></g></svg>