<svg width="40" height="40" viewBox="0 0 40 40" fill="none" xmlns="http://www.w3.org/2000/svg">
<path d="M20 8.75H26.25V10H20V8.75Z" fill="#0B744C"/>
<path d="M20 11.25H26.25V12.5H20V11.25Z" fill="#0B744C"/>
<path d="M20 13.75H26.25V15H20V13.75Z" fill="#0B744C"/>
<path d="M20 16.25H26.25V17.5H20V16.25Z" fill="#0B744C"/>
<path d="M13.045 9.88625C13.5028 10.0379 13.9972 10.0379 14.455 9.88625C14.5659 10.2775 14.8009 10.622 15.1247 10.868C15.4484 11.114 15.8434 11.2481 16.25 11.25H16.875C17.0408 11.25 17.1997 11.3158 17.3169 11.4331C17.4342 11.5503 17.5 11.7092 17.5 11.875V13.75H18.75V11.875C18.75 11.3777 18.5525 10.9008 18.2008 10.5492C17.8492 10.1975 17.3723 10 16.875 10H16.25C16.0842 10 15.9253 9.93415 15.8081 9.81694C15.6908 9.69973 15.625 9.54076 15.625 9.375V9.13625C16.0255 8.68507 16.2477 8.1033 16.25 7.5V6.25C16.25 5.58696 15.9866 4.95107 15.5178 4.48223C15.0489 4.01339 14.413 3.75 13.75 3.75C13.087 3.75 12.4511 4.01339 11.9822 4.48223C11.5134 4.95107 11.25 5.58696 11.25 6.25V7.5C11.2523 8.1033 11.4745 8.68507 11.875 9.13625V9.375C11.875 9.54076 11.8092 9.69973 11.6919 9.81694C11.5747 9.93415 11.4158 10 11.25 10H10.625C10.1277 10 9.65081 10.1975 9.29917 10.5492C8.94754 10.9008 8.75 11.3777 8.75 11.875V13.75H10V11.875C10 11.7092 10.0658 11.5503 10.1831 11.4331C10.3003 11.3158 10.4592 11.25 10.625 11.25H11.25C11.6566 11.2481 12.0516 11.114 12.3753 10.868C12.6991 10.622 12.9341 10.2775 13.045 9.88625ZM12.5 6.25C12.5 5.91848 12.6317 5.60054 12.8661 5.36612C13.1005 5.1317 13.4185 5 13.75 5C14.0815 5 14.3995 5.1317 14.6339 5.36612C14.8683 5.60054 15 5.91848 15 6.25V7.5C15 7.83152 14.8683 8.14946 14.6339 8.38388C14.3995 8.6183 14.0815 8.75 13.75 8.75C13.4185 8.75 13.1005 8.6183 12.8661 8.38388C12.6317 8.14946 12.5 7.83152 12.5 7.5V6.25Z" fill="#0B744C"/>
<path d="M20.625 7.5H25.625C25.7908 7.5 25.9497 7.43415 26.0669 7.31694C26.1842 7.19973 26.25 7.04076 26.25 6.875V4.375C26.25 4.20924 26.1842 4.05027 26.0669 3.93306C25.9497 3.81585 25.7908 3.75 25.625 3.75H20.625C20.4592 3.75 20.3003 3.81585 20.1831 3.93306C20.0658 4.05027 20 4.20924 20 4.375V6.875C20 7.04076 20.0658 7.19973 20.1831 7.31694C20.3003 7.43415 20.4592 7.5 20.625 7.5ZM21.25 5H25V6.25H21.25V5Z" fill="#0B744C"/>
<path d="M38.75 17.5C38.749 16.5057 38.3536 15.5525 37.6506 14.8494C36.9475 14.1464 35.9943 13.751 35 13.75H31.25V4.375C31.25 4.20924 31.1842 4.05027 31.0669 3.93306C30.9497 3.81585 30.7908 3.75 30.625 3.75H28.75V1.875C28.75 1.70924 28.6842 1.55027 28.5669 1.43306C28.4497 1.31585 28.2908 1.25 28.125 1.25H6.875C6.70924 1.25 6.55027 1.31585 6.43306 1.43306C6.31585 1.55027 6.25 1.70924 6.25 1.875V15.625H4.375C3.5465 15.626 2.75222 15.9556 2.16639 16.5414C1.58055 17.1272 1.25099 17.9215 1.25 18.75V35.625C1.25099 36.4535 1.58055 37.2478 2.16639 37.8336C2.75222 38.4194 3.5465 38.749 4.375 38.75H30.625C31.4289 38.7472 32.2007 38.4347 32.7802 37.8775C33.3596 37.3203 33.702 36.5613 33.7363 35.7581L38.7275 17.6663C38.7424 17.6121 38.75 17.5562 38.75 17.5ZM30 5V18.75H28.75V5H30ZM7.5 2.5H27.5V18.75H15.2587L12.3169 15.8081C12.1997 15.6909 12.0407 15.625 11.875 15.625H7.5V2.5ZM32.5 35.625C32.5 36.1223 32.3025 36.5992 31.9508 36.9508C31.5992 37.3025 31.1223 37.5 30.625 37.5H4.375C3.87772 37.5 3.40081 37.3025 3.04917 36.9508C2.69754 36.5992 2.5 36.1223 2.5 35.625V18.75C2.5 18.2527 2.69754 17.7758 3.04917 17.4242C3.40081 17.0725 3.87772 16.875 4.375 16.875H11.6163L14.5581 19.8169C14.6753 19.9341 14.8343 20 15 20H30.625C31.1223 20 31.5992 20.1975 31.9508 20.5492C32.3025 20.9008 32.5 21.3777 32.5 21.875V35.625ZM33.75 31.0094V21.875C33.7491 21.1549 33.4999 20.4571 33.0445 19.8992C32.5892 19.3414 31.9554 18.9576 31.25 18.8125V15H35C35.6494 14.9997 36.2735 15.252 36.7401 15.7037C37.2067 16.1554 37.4792 16.7709 37.5 17.42L33.75 31.0094Z" fill="#0B744C"/>
<path d="M23.75 25.625H20.625V22.5C20.625 22.3342 20.5592 22.1753 20.4419 22.0581C20.3247 21.9408 20.1658 21.875 20 21.875H15C14.8342 21.875 14.6753 21.9408 14.5581 22.0581C14.4408 22.1753 14.375 22.3342 14.375 22.5V25.625H11.25C11.0842 25.625 10.9253 25.6908 10.8081 25.8081C10.6908 25.9253 10.625 26.0842 10.625 26.25V31.25C10.625 31.4158 10.6908 31.5747 10.8081 31.6919C10.9253 31.8092 11.0842 31.875 11.25 31.875H14.375V35C14.375 35.1658 14.4408 35.3247 14.5581 35.4419C14.6753 35.5592 14.8342 35.625 15 35.625H20C20.1658 35.625 20.3247 35.5592 20.4419 35.4419C20.5592 35.3247 20.625 35.1658 20.625 35V31.875H23.75C23.9158 31.875 24.0747 31.8092 24.1919 31.6919C24.3092 31.5747 24.375 31.4158 24.375 31.25V26.25C24.375 26.0842 24.3092 25.9253 24.1919 25.8081C24.0747 25.6908 23.9158 25.625 23.75 25.625ZM23.125 30.625H20C19.8342 30.625 19.6753 30.6908 19.5581 30.8081C19.4408 30.9253 19.375 31.0842 19.375 31.25V34.375H15.625V31.25C15.625 31.0842 15.5592 30.9253 15.4419 30.8081C15.3247 30.6908 15.1658 30.625 15 30.625H11.875V26.875H15C15.1658 26.875 15.3247 26.8092 15.4419 26.6919C15.5592 26.5747 15.625 26.4158 15.625 26.25V23.125H19.375V26.25C19.375 26.4158 19.4408 26.5747 19.5581 26.6919C19.6753 26.8092 19.8342 26.875 20 26.875H23.125V30.625Z" fill="#0B744C"/>
</svg>
