<svg id="Invoice_Number" data-name="Invoice Number" xmlns="http://www.w3.org/2000/svg" width="63.738" height="60.002" viewBox="0 0 63.738 60.002">
  <path id="Path_89" data-name="Path 89" d="M375.888,11.4V22.542H365.379V11.4a5.256,5.256,0,0,1,4.955-5.247c.1-.005.2-.008.3-.008A5.255,5.255,0,0,1,375.888,11.4Zm0,0" transform="translate(-314.228 -5.304)" fill="#fecaca"/>
  <path id="Path_90" data-name="Path 90" d="M298.929,198.614a11.952,11.952,0,1,1-8.246-3.5,11.952,11.952,0,0,1,8.246,3.5Zm0,0" transform="translate(-239.532 -167.818)" fill="#fecaca"/>
  <path id="Path_91" data-name="Path 91" d="M113.236,6.145v.008a5.256,5.256,0,0,0-4.954,5.247V32.6a11.953,11.953,0,1,0-.025,23.9,8.511,8.511,0,0,1-8.408,7.963h-.005c-.174,0-.346-.006-.517-.017a8.541,8.541,0,0,1-7.915-8.6V50.265H66.431l.312-38.175a6.006,6.006,0,0,1,6.006-5.945Zm0,0" transform="translate(-57.131 -5.305)" fill="#fff"/>
  <path id="Path_92" data-name="Path 92" d="M47.356,335.489l0,.017H14.433A8.528,8.528,0,0,1,6,326.886V321.3H39.441v5.582a8.541,8.541,0,0,0,7.915,8.6Zm0,0" transform="translate(-5.16 -276.344)" fill="#fecaca"/>
  <g id="Group_27" data-name="Group 27" transform="translate(0 0)">
    <path id="Path_93" data-name="Path 93" d="M107.949,102.133h7.019a.84.84,0,1,0,0-1.68h-7.019a.84.84,0,1,0,0,1.68Zm0,0" transform="translate(-92.114 -86.41)"/>
    <path id="Path_94" data-name="Path 94" d="M243.219,172.774a.84.84,0,1,0,0-1.68H232.769a.84.84,0,1,0,0,1.68Zm0,0" transform="translate(-199.461 -147.162)"/>
    <path id="Path_95" data-name="Path 95" d="M184.02,171.094a.84.84,0,1,0,0,1.68h3.273a.84.84,0,0,0,0-1.68Zm0,0" transform="translate(-157.536 -147.162)"/>
    <path id="Path_96" data-name="Path 96" d="M107.949,172.774h7.039a.84.84,0,0,0,0-1.68h-7.039a.84.84,0,1,0,0,1.68Zm0,0" transform="translate(-92.114 -147.162)"/>
    <path id="Path_97" data-name="Path 97" d="M122.686,241.746H107.949a.84.84,0,0,0,0,1.68h14.737a.84.84,0,1,0,0-1.68Zm0,0" transform="translate(-92.114 -207.923)"/>
    <path id="Path_98" data-name="Path 98" d="M61.66,18.221a.839.839,0,0,0,.84-.84V6.239a6.1,6.1,0,0,0-6.1-6.1c-.068,0-.136,0-.2.006a.794.794,0,0,0-.1-.006H15.617A6.867,6.867,0,0,0,8.772,6.923L8.467,44.265H.84A.84.84,0,0,0,0,45.1v5.582a9.392,9.392,0,0,0,8.7,9.439.87.87,0,0,0,.181.02H42.194a.919.919,0,0,0,.123-.01c.132.005.265.01.4.01a9.371,9.371,0,0,0,9.159-8,12.79,12.79,0,0,0,.114-25.5V18.221ZM60.82,6.239v10.3H51.991V6.239a4.415,4.415,0,0,1,4.162-4.408c.084,0,.168-.007.252-.007A4.415,4.415,0,0,1,60.82,6.239ZM1.68,50.686V45.945H33.44v4.742a9.52,9.52,0,0,0,4,7.78H9.273a7.7,7.7,0,0,1-7.593-7.78Zm41.033,7.78c-.155,0-.31-.005-.465-.015a7.705,7.705,0,0,1-7.127-7.764V45.1a.84.84,0,0,0-.84-.84H10.147l.305-37.327a5.181,5.181,0,0,1,5.166-5.114H52.205a6.088,6.088,0,0,0-1.894,4.415V26.615a12.79,12.79,0,0,0-11.232,8,.839.839,0,0,0-.816-.644H34.126a.84.84,0,0,0,0,1.68h4.137a.835.835,0,0,0,.509-.173,12.78,12.78,0,0,0,11.4,16.686,7.679,7.679,0,0,1-7.459,6.306ZM58.8,47.25A11.049,11.049,0,0,1,51.113,50.5h-.17a11.113,11.113,0,0,1,0-22.226c.065,0,.13,0,.2,0A11.113,11.113,0,0,1,58.8,47.249Zm0,0" transform="translate(0 -0.144)"/>
    <path id="Path_99" data-name="Path 99" d="M293.012,102.133h2.016a.84.84,0,1,0,0-1.68h-2.016a.84.84,0,0,0,0,1.68Zm0,0" transform="translate(-251.269 -86.41)"/>
    <path id="Path_100" data-name="Path 100" d="M183.031,102.133h11.856a.84.84,0,0,0,0-1.68H183.031a.84.84,0,1,0,0,1.68Zm0,0" transform="translate(-156.685 -86.41)"/>
    <path id="Path_101" data-name="Path 101" d="M331.206,228.69l-2.381-.027h-.01a.84.84,0,1,0-.009,1.68l2.382.027a2.735,2.735,0,0,1,2.578,1.918l-4.979-.054h-.009a.84.84,0,0,0-.009,1.68l4.978.054a2.742,2.742,0,0,1-2.587,1.863l-2.412-.025h-.009a.84.84,0,0,0-.583,1.444l5.892,5.689a.84.84,0,0,0,1.167-1.209l-4.373-4.223.318,0a4.43,4.43,0,0,0,4.32-3.524l1.612.017h.009a.84.84,0,0,0,.008-1.68l-1.611-.018a4.395,4.395,0,0,0-.85-1.9l2.481.027h.009a.84.84,0,1,0,.009-1.68Zm0,0" transform="translate(-281.994 -196.672)"/>
  </g>
</svg>
