<svg id="Line" height="512" viewBox="0 0 64 64" width="512" xmlns="http://www.w3.org/2000/svg"><g><path d="m41.482 2.994h-18.963c-5.131 0-9.306 4.174-9.306 9.306v39.373c0 5.147 4.174 9.334 9.306 9.334h18.964c5.131 0 9.305-4.187 9.305-9.334v-39.374c-.001-5.131-4.175-9.305-9.306-9.305zm0 56.012h-18.963c-4.028 0-7.306-3.29-7.306-7.334v-39.373c0-4.028 3.277-7.306 7.306-7.306h18.964c4.027 0 7.305 3.277 7.305 7.306v35.623h-29.575c-.552 0-1 .448-1 1s.448 1 1 1h29.574v1.75c0 4.044-3.277 7.334-7.305 7.334z"/><path d="m31.986 44.197c7.257 0 13.16-5.891 13.16-13.132 0-7.257-5.903-13.161-13.16-13.161-2.347 0-4.653.632-6.668 1.829-.475.282-.631.896-.35 1.37.282.475.896.632 1.37.35 1.707-1.013 3.66-1.549 5.648-1.549 6.153 0 11.16 5.007 11.16 11.161 0 6.138-5.007 11.132-11.16 11.132-6.139 0-11.133-4.994-11.133-11.132 0-1.886.482-3.753 1.396-5.398.268-.483.094-1.092-.389-1.36-.483-.267-1.092-.093-1.36.389-1.077 1.942-1.646 4.144-1.646 6.369 0 7.241 5.891 13.132 13.132 13.132z"/><path d="m26.686 10.833h10.631c.553 0 1-.448 1-1s-.447-1-1-1h-10.631c-.552 0-1 .448-1 1s.447 1 1 1z"/><path d="m31.079 35.976c.256 0 .512-.098.707-.293l7.257-7.257c.391-.391.391-1.023 0-1.414s-1.023-.391-1.414 0l-6.552 6.552-4.056-4.031c-.392-.389-1.024-.386-1.415.004-.389.392-.387 1.025.004 1.415l4.763 4.734c.196.193.451.29.706.29z"/></g></svg>