<svg xmlns="http://www.w3.org/2000/svg" width="42.036" height="44.245" viewBox="0 0 42.036 44.245">
  <path id="past_history" d="M24.806,17.3v8.37l4.039,4.041a1.7,1.7,0,1,1-2.405,2.405L21.9,27.575a1.7,1.7,0,0,1-.5-1.2V17.3a1.7,1.7,0,0,1,3.4,0ZM23.163,2.25A21.97,21.97,0,0,0,6.654,9.724V3.952a1.7,1.7,0,1,0-3.4,0v9.076a1.7,1.7,0,0,0,1.7,1.7h9.076a1.7,1.7,0,0,0,0-3.4H9.838A18.674,18.674,0,1,1,23.163,43.092,18.454,18.454,0,0,1,6.482,32.7a1.7,1.7,0,1,0-3.059,1.5,21.841,21.841,0,0,0,19.74,12.3,22.123,22.123,0,1,0,0-44.245Z" transform="translate(-3.249 -2.25)"/>
</svg>
