<svg xmlns="http://www.w3.org/2000/svg" width="40.141" height="44.245" viewBox="0 0 40.141 44.245">
  <path id="pre_authorization" d="M39.341,8.088,25.579,2.81a6.308,6.308,0,0,0-4.516,0L7.3,8.088a6.344,6.344,0,0,0-4.049,5.888v6.505A27.632,27.632,0,0,0,21.106,46.236a6.308,6.308,0,0,0,4.441,0A27.629,27.629,0,0,0,43.392,20.479V13.974a6.339,6.339,0,0,0-4.049-5.888Zm.608,12.4A24.177,24.177,0,0,1,24.324,43.017a2.871,2.871,0,0,1-2.023,0A24.178,24.178,0,0,1,6.687,20.486V13.98A2.882,2.882,0,0,1,8.527,11.3L22.289,6.026a2.869,2.869,0,0,1,2.055,0L38.107,11.3a2.882,2.882,0,0,1,1.84,2.677v6.505Zm-8.6-1.92a1.722,1.722,0,0,1,.128,2.431L23.223,30.17a1.724,1.724,0,0,1-2.56,0l-5.505-6.118a1.722,1.722,0,0,1,2.56-2.3l4.225,4.7,6.978-7.755a1.725,1.725,0,0,1,2.431-.128Z" transform="translate(-3.251 -2.392)"/>
</svg>
