<svg xmlns="http://www.w3.org/2000/svg" width="42.187" height="44.245" viewBox="0 0 42.187 44.245">
  <path id="treatment_discharge" d="M20.141,1.25h4.348a75.168,75.168,0,0,1,9.122.315,9.7,9.7,0,0,1,5.906,2.548A1.543,1.543,0,0,1,37.334,6.3,6.682,6.682,0,0,0,33.2,4.624a74.072,74.072,0,0,0-8.827-.288H20.257a74.069,74.069,0,0,0-8.827.288A6.682,6.682,0,0,0,7.3,6.3,6.682,6.682,0,0,0,5.624,10.43a74.069,74.069,0,0,0-.288,8.827v8.232a74.072,74.072,0,0,0,.288,8.827A6.682,6.682,0,0,0,7.3,40.449a6.682,6.682,0,0,0,4.134,1.671,74.053,74.053,0,0,0,8.827.288h4.116a74.056,74.056,0,0,0,8.827-.288,6.682,6.682,0,0,0,4.134-1.671c1.432-1.432,1.866-3.658,1.941-8.867a1.543,1.543,0,1,1,3.086.044c-.072,5-.4,8.556-2.845,11.006a9.7,9.7,0,0,1-5.906,2.548,75.209,75.209,0,0,1-9.122.315H20.141a75.211,75.211,0,0,1-9.122-.315,9.7,9.7,0,0,1-5.906-2.548,9.7,9.7,0,0,1-2.548-5.906A75.168,75.168,0,0,1,2.25,27.6V19.141a75.169,75.169,0,0,1,.315-9.122A9.694,9.694,0,0,1,5.113,4.113a9.694,9.694,0,0,1,5.906-2.548,75.169,75.169,0,0,1,9.122-.315ZM34.895,13.177A5.59,5.59,0,1,1,42.8,21.082l-9.786,9.786a14.456,14.456,0,0,1-1.3,1.207,8.292,8.292,0,0,1-1.531.947,14.5,14.5,0,0,1-1.66.619L24.239,35.07a2.635,2.635,0,0,1-3.333-3.333l1.4-4.2.029-.086a14.545,14.545,0,0,1,.619-1.66,8.292,8.292,0,0,1,.947-1.531,14.455,14.455,0,0,1,1.207-1.3l.064-.064Zm5.722,2.183a2.5,2.5,0,0,0-3.54,0l-.374.374c.02.069.044.142.07.219a5.34,5.34,0,0,0,3.25,3.25c.077.027.15.05.219.07l.374-.374a2.5,2.5,0,0,0,0-3.54Zm-2.732,6.271a8.48,8.48,0,0,1-3.54-3.54l-6.99,6.99a12.934,12.934,0,0,0-1.021,1.076,5.211,5.211,0,0,0-.594.961,12.875,12.875,0,0,0-.506,1.394l-.824,2.471.581.581,2.471-.824a12.876,12.876,0,0,0,1.394-.506,5.211,5.211,0,0,0,.961-.594A12.933,12.933,0,0,0,30.9,28.621ZM12.54,17.2a1.543,1.543,0,0,1,1.543-1.543H27.459a1.543,1.543,0,0,1,0,3.087H14.083A1.543,1.543,0,0,1,12.54,17.2Zm0,8.232a1.543,1.543,0,0,1,1.543-1.543h5.145a1.543,1.543,0,1,1,0,3.087H14.083A1.543,1.543,0,0,1,12.54,25.431Zm0,8.232a1.543,1.543,0,0,1,1.543-1.543H17.17a1.543,1.543,0,0,1,0,3.087H14.083A1.543,1.543,0,0,1,12.54,33.662Z" transform="translate(-2.25 -1.25)" fill-rule="evenodd"/>
</svg>
