<svg id="URN_Number" data-name="URN Number" xmlns="http://www.w3.org/2000/svg" width="55.783" height="60.002" viewBox="0 0 55.783 60.002">
  <g id="Group_13" data-name="Group 13" transform="translate(0.879 32.292)">
    <path id="Path_24" data-name="Path 24" d="M25.506,277.929l1.436,22.748a1.663,1.663,0,0,0,1.882,1.625l2.989.03,3.368-14.422-3.368-12.362-4.152.017A2.093,2.093,0,0,0,25.506,277.929Z" transform="translate(-25.5 -275.547)" fill="#fed7aa" fill-rule="evenodd"/>
  </g>
  <g id="Group_14" data-name="Group 14" transform="translate(9.181 4.294)">
    <path id="Path_25" data-name="Path 25" d="M96.336,37.6l0,23.4c.066,0,.146-.04.206-.007l2.617,1.375,2.829-1.379L104.947,46.6l-2.956-9.957h-4.7A.96.96,0,0,0,96.336,37.6Z" transform="translate(-96.336 -36.644)" fill="#fed7aa" fill-rule="evenodd"/>
  </g>
  <g id="Group_15" data-name="Group 15" transform="translate(14.836 0.879)">
    <path id="Path_26" data-name="Path 26" d="M144.592,10.915V35.262l18.565,3.581,17.627-7.671V8.46a.963.963,0,0,0-.961-.96h-34.27a.963.963,0,0,0-.961.96Z" transform="translate(-144.592 -7.5)" fill="#fff" fill-rule="evenodd"/>
  </g>
  <g id="Group_16" data-name="Group 16" transform="translate(7.192 24.551)">
    <path id="Path_27" data-name="Path 27" d="M87.014,213.582l-5.446,0a1.94,1.94,0,0,0-2.2,2.067v28.366l4.412.047h39.53c2.341,0,3.63-1.5,3.77-2.539V212.469c-.02-3.047-2.381-2.977-3.228-2.977H98.863a1.357,1.357,0,0,0-1.516,1.342v2.213c0,.578-.342.532-.9.532Z" transform="translate(-79.371 -209.492)" fill="#fff" fill-rule="evenodd"/>
  </g>
  <g id="Group_17" data-name="Group 17" transform="translate(30.176 0.879)">
    <path id="Path_28" data-name="Path 28" d="M295.38,7.5H275.489c9.183,4.309,10.782,14.1,12.029,23.672h8.824V8.46a.963.963,0,0,0-.961-.96Z" transform="translate(-275.489 -7.5)" fill="#fff" fill-rule="evenodd"/>
  </g>
  <g id="Group_19" data-name="Group 19" transform="translate(33.55 35.538)">
    <path id="Path_30" data-name="Path 30" d="M307.984,306.943h-2.869a.833.833,0,0,0-.831.831v4.249a.83.83,0,0,0,.831.827h2.869v2.87a.83.83,0,0,0,.831.827h4.249a.83.83,0,0,0,.831-.827v-2.87h2.869a.83.83,0,0,0,.831-.827v-4.249a.833.833,0,0,0-.831-.831H313.9v-2.867a.833.833,0,0,0-.831-.831h-4.249a.833.833,0,0,0-.831.831Z" transform="translate(-304.284 -303.245)" fill="#fed7aa" fill-rule="evenodd"/>
  </g>
  <g id="Group_21" data-name="Group 21" transform="translate(0 0)">
    <path id="Path_32" data-name="Path 32" d="M72.064,24.149a4.535,4.535,0,0,0-2.16-.477V1.839A1.841,1.841,0,0,0,68.065,0H33.794a1.842,1.842,0,0,0-1.84,1.839V3.415H28.136A1.839,1.839,0,0,0,26.3,5.255V15.517a.879.879,0,1,0,1.758,0V5.249A.071.071,0,0,1,28.08,5.2a.081.081,0,0,1,.056-.025h3.819v22.59l-3.894,0,0-8.191a.879.879,0,0,0-.879-.879h0a.879.879,0,0,0-.879.879l0,8.331a2.736,2.736,0,0,0-1.991,2.8v.706l-3.279.013a3.116,3.116,0,0,0-2.26.955,3.034,3.034,0,0,0-.766,2.345l1.436,22.748a2.51,2.51,0,0,0,2.75,2.448l2.709.028a.908.908,0,0,0,.56.006L29.6,60h39.53c2.9,0,4.457-1.93,4.641-3.3a.887.887,0,0,0,.008-.117V27.522a3.535,3.535,0,0,0-1.717-3.373ZM24.311,58.189l-2.1-.022c-.887-.007-.986-.4-1.012-.8L19.761,34.619a1.338,1.338,0,0,1,.3-1.036,1.372,1.372,0,0,1,.984-.4l3.27-.013V58.189Zm47.712-1.675a2.794,2.794,0,0,1-2.891,1.73H29.611l-3.542-.037V30.71c0-.819.407-1.186,1.319-1.188l14.877-.007h.111a1.666,1.666,0,0,0,1.289-.381,1.393,1.393,0,0,0,.38-1.03V25.893c0-.307.214-.463.637-.463h5.954a.879.879,0,1,0,0-1.758H44.683a2.237,2.237,0,0,0-2.4,2.221v1.865h-.022l-8.553,0V1.839a.085.085,0,0,1,.082-.081h34.27a.085.085,0,0,1,.082.081V23.672H54.7a.879.879,0,1,0,0,1.758H69.753c1.192,0,2.258.169,2.27,2.1V56.514Z" transform="translate(-17.998 0)"/>
    <path id="Path_33" data-name="Path 33" d="M310.144,299.443h-1.99v-1.988a1.712,1.712,0,0,0-1.71-1.709h-4.249a1.712,1.712,0,0,0-1.71,1.709v1.988h-1.99a1.712,1.712,0,0,0-1.71,1.71V305.4a1.71,1.71,0,0,0,1.71,1.706h1.99V309.1a1.71,1.71,0,0,0,1.71,1.706h4.249a1.71,1.71,0,0,0,1.71-1.706v-1.992h1.99a1.71,1.71,0,0,0,1.71-1.706v-4.249A1.712,1.712,0,0,0,310.144,299.443Zm-.048,5.907h-2.821a.879.879,0,0,0-.879.879v2.819h-4.153v-2.819a.879.879,0,0,0-.879-.879h-2.821V301.2h2.821a.879.879,0,0,0,.879-.879V297.5H306.4v2.819a.879.879,0,0,0,.879.879H310.1Z" transform="translate(-264.113 -261.086)"/>
    <path id="Path_34" data-name="Path 34" d="M149.194,378.157H137.461a.879.879,0,1,0,0,1.758h11.733a.879.879,0,1,0,0-1.758Z" transform="translate(-122.685 -333.84)"/>
    <path id="Path_35" data-name="Path 35" d="M149.194,328.376H137.461a.879.879,0,0,0,0,1.758h11.733a.879.879,0,1,0,0-1.758Z" transform="translate(-122.685 -289.893)"/>
    <path id="Path_36" data-name="Path 36" d="M226.394,130.466a.879.879,0,0,0-.879-.879H203.363a.879.879,0,0,0,0,1.758h22.152A.879.879,0,0,0,226.394,130.466Z" transform="translate(-180.864 -114.401)"/>
    <path id="Path_37" data-name="Path 37" d="M203.363,71.017h22.152a.879.879,0,0,0,0-1.758H203.363a.879.879,0,0,0,0,1.758Z" transform="translate(-180.864 -61.142)"/>
  </g>
</svg>
