<svg xmlns="http://www.w3.org/2000/svg" width="25.291" height="25.264" viewBox="0 0 25.291 25.264">
  <g id="community" transform="translate(-0.501 -0.771)">
    <path id="Path_87" data-name="Path 87" d="M10.684,206.91h-.6c-.031-2.2-.227-4.783-1.317-5.922a.38.38,0,0,0-.041-.037c-.925-.717-3.974-2.313-4.578-2.117a1.527,1.527,0,0,0-.3.153,30.711,30.711,0,0,1-1-3.191c-.241-.9-.856-1.141-1.31-1.071a1.359,1.359,0,0,0-1.036,1.5.4.4,0,0,0,0,.04,19.062,19.062,0,0,0,2.1,6.73,11.1,11.1,0,0,0,2.213,1.837c.5.368.963.715,1.1.845a1.584,1.584,0,0,1,.306,1.229H5.4a.67.67,0,0,0-.655.684v2.1a.671.671,0,0,0,.655.684h5.285a.671.671,0,0,0,.655-.684v-2.1A.671.671,0,0,0,10.684,206.91Zm-4.249-1.761c-.178-.168-.618-.494-1.175-.908a18.477,18.477,0,0,1-2.011-1.61,18.32,18.32,0,0,1-2.008-6.449c-.01-.429.2-.693.407-.724s.388.173.484.531a27.93,27.93,0,0,0,1.231,3.78,1.721,1.721,0,0,0,.431,1.317,4.429,4.429,0,0,0,1.472.9,12.894,12.894,0,0,1,1.181.6.371.371,0,1,0,.381-.635,13.724,13.724,0,0,0-1.248-.638,4.265,4.265,0,0,1-1.218-.707.971.971,0,0,1-.261-.763c0-.012,0-.023.005-.035s0-.009,0-.014c.01-.048.032-.158.242-.25a16.173,16.173,0,0,1,3.893,1.971c.9.977,1.065,3.48,1.093,5.39H6.969a2.266,2.266,0,0,0-.533-1.761Zm4.163,4.49H5.485v-1.988H10.6Z" transform="translate(0 -184.345)" fill="#9e6b28"/>
    <path id="Path_88" data-name="Path 88" d="M302.305,194.723c-.453-.07-1.069.171-1.31,1.072a30.642,30.642,0,0,1-1,3.192,1.606,1.606,0,0,0-.318-.161c-.586-.19-3.634,1.406-4.559,2.123a.382.382,0,0,0-.041.037c-1.07,1.118-1.278,3.691-1.315,5.922h-.606a.671.671,0,0,0-.655.684v2.1a.671.671,0,0,0,.655.684h5.285a.671.671,0,0,0,.655-.684v-2.1a.671.671,0,0,0-.655-.684h-.83a1.737,1.737,0,0,1,.3-1.221c.147-.138.614-.485,1.109-.853A11.128,11.128,0,0,0,301.237,203a19.062,19.062,0,0,0,2.1-6.73.371.371,0,0,0,0-.04A1.359,1.359,0,0,0,302.305,194.723Zm-3.947,14.913h-5.114v-1.988h5.114Zm2.237-7.01a18.342,18.342,0,0,1-2.013,1.613c-.557.413-1,.74-1.182.914a2.439,2.439,0,0,0-.527,1.754h-2.367c.021-1.4.136-4.356,1.092-5.39a16.214,16.214,0,0,1,3.891-1.97c.214.1.235.2.245.249l0,.013a.361.361,0,0,0,.005.036.971.971,0,0,1-.262.764,4.274,4.274,0,0,1-1.218.706,13.686,13.686,0,0,0-1.249.638.371.371,0,0,0,.381.635,12.9,12.9,0,0,1,1.181-.6,4.424,4.424,0,0,0,1.472-.9,1.72,1.72,0,0,0,.432-1.318,27.936,27.936,0,0,0,1.231-3.78c.1-.358.281-.56.484-.53s.417.295.407.724A18.319,18.319,0,0,1,300.6,202.626Z" transform="translate(-277.552 -184.343)" fill="#9e6b28"/>
    <path id="Path_89" data-name="Path 89" d="M72.79,10.863h.839a.879.879,0,0,0,.533-.179.912.912,0,0,0,.528.168h1.444a10.831,10.831,0,0,0-.177,2.021,1,1,0,0,0,1,1h1.032a1,1,0,0,0,.657-.242,1.028,1.028,0,0,0,.649.228h3.462a1.02,1.02,0,0,0,.649-.231,1,1,0,0,0,.657.245h1.032a1,1,0,0,0,1-1,10.822,10.822,0,0,0-.177-2.021H87.36a.9.9,0,0,0,.527-.17.87.87,0,0,0,.534.182h.839a.877.877,0,0,0,.876-.877c0-3.041-1.262-4.857-3.374-4.857h-.406a1.764,1.764,0,0,0,1.073-2.684V1.371a.345.345,0,0,0-.27-.337L86.03.779a.347.347,0,0,0-.152,0l-1.129.254a.346.346,0,0,0-.27.337V2.454A1.757,1.757,0,0,0,85.552,5.13h-.407a2.955,2.955,0,0,0-2.8,1.858c-.106-.008-.214-.013-.324-.013H80.03c-.11,0-.218,0-.324.013a2.951,2.951,0,0,0-2.8-1.858H76.5a1.764,1.764,0,0,0,1.073-2.684V1.371a.346.346,0,0,0-.27-.337L76.173.779a.347.347,0,0,0-.152,0l-1.129.254a.346.346,0,0,0-.27.337V2.454A1.756,1.756,0,0,0,75.7,5.13h-.407c-2.112,0-3.374,1.816-3.374,4.857a.877.877,0,0,0,.876.876ZM85.17,1.647l.784-.177.784.177v.561H85.17ZM84.9,3.633a1.043,1.043,0,0,1,.112-.733H86.9a1.073,1.073,0,1,1-1.992.733Zm-9.59-1.986.784-.177.784.177V2.2H75.314Zm-.267,1.986a1.058,1.058,0,0,1,.118-.743h1.869a1.073,1.073,0,1,1-1.987.743Zm10.1,2.188h1.617c2.421,0,2.683,2.913,2.683,4.166a.187.187,0,0,1-.185.185h-.839A.188.188,0,0,1,88.236,10c0-.008,0-.017,0-.026h0s0,0,0-.006V9.195a.346.346,0,1,0-.691,0v.771s0,.007,0,.011,0,.007,0,.011,0,.016,0,.024a.131.131,0,0,1-.039.089.205.205,0,0,1-.146.06H85.752a4.03,4.03,0,0,0-2.7-3.05,2.241,2.241,0,0,1,2.09-1.289ZM82.02,7.667c3.051,0,3.381,3.641,3.382,5.206a.307.307,0,0,1-.307.307H84.062a.308.308,0,0,1-.307-.281s0-.021,0-.026v-.017s0-.006,0-.009V11.9a.346.346,0,1,0-.691,0v.949s0,.009,0,.013,0,.009,0,.013V12.9a.291.291,0,0,1-.308.268H79.294c-.148,0-.307-.1-.308-.242,0,0,0-.019,0-.025v-.014c0-.006,0-.013,0-.019s0-.012,0-.019V11.9a.346.346,0,1,0-.691,0v.949c0,.005,0,.011,0,.016V12.9a.3.3,0,0,1-.307.283H76.956a.307.307,0,0,1-.307-.307,9.993,9.993,0,0,1,.24-2.23.344.344,0,0,0,.027-.111c.366-1.447,1.21-2.865,3.115-2.865H82.02ZM75.288,5.821H76.9a2.24,2.24,0,0,1,2.09,1.289,4.03,4.03,0,0,0-2.7,3.05H74.69a.21.21,0,0,1-.15-.059.119.119,0,0,1-.035-.081c0-.008,0-.016,0-.024s0-.01,0-.015,0-.01,0-.015V9.194a.346.346,0,1,0-.691,0v.771s0,.008,0,.012v0c0,.008,0,.017,0,.025a.179.179,0,0,1-.184.164H72.79a.187.187,0,0,1-.185-.185c0-1.252.262-4.166,2.683-4.166Z" transform="translate(-67.879)" fill="#9e6b28"/>
    <path id="Path_90" data-name="Path 90" d="M213.806,21.348a2.094,2.094,0,0,0,2.042,1.661,2.1,2.1,0,0,0,.435-.045,2.092,2.092,0,0,0,1.308-3.21l0,0V18.4a.345.345,0,0,0-.27-.337l-1.39-.314a.349.349,0,0,0-.152,0l-1.39.314a.345.345,0,0,0-.27.337v1.356A2.077,2.077,0,0,0,213.806,21.348Zm3.219.334a1.4,1.4,0,0,1-2.542-.477,1.362,1.362,0,0,1,.143-.951h2.46a1.4,1.4,0,0,1-.061,1.427Zm-2.216-3,1.044-.235,1.044.235v.882h-2.088v-.882Z" transform="translate(-202.706 -16.134)" fill="#9e6b28"/>
    <path id="Path_91" data-name="Path 91" d="M201.876,279.9a1.377,1.377,0,0,0-.326-.906,1.281,1.281,0,0,0-.987-.428h-.3v-.3a1.335,1.335,0,0,0-2.669,0v.3h-.3a1.335,1.335,0,0,0,0,2.669h.3v.3a1.335,1.335,0,0,0,2.669,0v-.3h.3a1.283,1.283,0,0,0,1.313-1.336Zm-1.313.644h-.647a.346.346,0,0,0-.346.346v.647a.643.643,0,0,1-1.287,0v-.647a.346.346,0,0,0-.346-.346h-.647a.643.643,0,0,1,0-1.287h.647a.346.346,0,0,0,.346-.346v-.647a.643.643,0,0,1,1.287,0v.647a.346.346,0,0,0,.346.346h.647a.586.586,0,0,1,.465.19.7.7,0,0,1,.157.452A.6.6,0,0,1,200.563,280.54Z" transform="translate(-185.792 -262.497)" fill="#9e6b28"/>
  </g>
</svg>
