<svg xmlns="http://www.w3.org/2000/svg" width="28.473" height="18.43" viewBox="0 0 28.473 18.43">
  <g id="disability" transform="translate(0 -90.299)">
    <path id="Path_92" data-name="Path 92" d="M27.69,99.819V97.851a2.573,2.573,0,0,0-2.57-2.57H20.293a.417.417,0,0,0,0,.834H25.12a1.738,1.738,0,0,1,1.736,1.736v1.937H17.863a2.419,2.419,0,0,0-2.378-2H14.8V96.115h3.407a.417.417,0,0,0,0-.834H14.382a1.65,1.65,0,0,1-.957-.3l-2.252-1.59A2.67,2.67,0,0,0,8.618,93.1,2.67,2.67,0,0,0,3.44,92.06a2.019,2.019,0,0,0-1.264.584,1.032,1.032,0,0,0-1.078.41L.246,94.261A1.031,1.031,0,0,0,.494,95.7l.141.1-.447.633A1.025,1.025,0,0,0,.434,97.86l4.19,2.959a.417.417,0,1,0,.481-.681L.915,97.178a.19.19,0,0,1-.046-.265l.447-.633,9.875,6.973a.417.417,0,0,0,.241.076H27.639v.966H10.994l-4.082-2.882a.417.417,0,0,0-.481.681l3.116,2.2H1.292a1.075,1.075,0,0,0-1.074,1.074v.487a1.075,1.075,0,0,0,1.074,1.074H2.36a1.317,1.317,0,1,0,2.45,0H16.967a.417.417,0,0,0,0-.834H1.292a.24.24,0,0,1-.24-.24v-.487a.24.24,0,0,1,.24-.24H27.639v.726a.24.24,0,0,1-.24.24H19.2a.417.417,0,1,0,0,.834h4.685a1.317,1.317,0,1,0,2.45,0H27.4a1.075,1.075,0,0,0,1.074-1.074v-5.036a1.032,1.032,0,0,0-.783-1ZM4.068,107.412a.483.483,0,1,1-.483-.483A.484.484,0,0,1,4.068,107.412Zm21.521,0a.483.483,0,1,1-.483-.483A.484.484,0,0,1,25.589,107.412Zm-8.58-7.624H12.424L10.8,98.644l.671-.951.636.449a2.615,2.615,0,0,0,1.516.481h1.856A1.584,1.584,0,0,1,17.009,99.788Zm-6.318-5.719,2.252,1.59a2.479,2.479,0,0,0,1.021.421V97.79h-.336a1.785,1.785,0,0,1-1.035-.328l-2.473-1.746a.417.417,0,1,0-.481.681l1.155.815-.671.951-3.05-2.154s1.068-1.5,1.109-1.567A1.838,1.838,0,0,1,10.691,94.068Zm-6.4-.965,1.58,1.115a1.186,1.186,0,0,1,.463,1.266l-.767-.541L2.938,93.09a1.186,1.186,0,0,1,1.348.013Zm1.664-1.97a1.836,1.836,0,0,1,1.105,3.3,2.006,2.006,0,0,0-.709-.9l-1.58-1.115a2.011,2.011,0,0,0-.472-.247,1.851,1.851,0,0,1,1.655-1.042Zm5.614,11.361L.975,95.017a.2.2,0,0,1-.047-.275l.852-1.207a.2.2,0,0,1,.275-.047l10,7.058a.417.417,0,0,0,.241.076H27.441a.2.2,0,0,1,.2.2v1.675H11.565Z" transform="translate(0 0)" fill="#9e6b28"/>
  </g>
</svg>
