<svg xmlns="http://www.w3.org/2000/svg" width="26.052" height="26.625" viewBox="0 0 26.052 26.625">
  <g id="health-insurance" transform="translate(-4.603 -3.999)">
    <path id="Path_9" data-name="Path 9" d="M30.6,22.861a.471.471,0,0,0,.04-.318L26.768,6.83A2.212,2.212,0,0,0,24.1,5.212l-2.555.632A2.255,2.255,0,0,0,20.5,4.316a2.187,2.187,0,0,0-1.671-.25L6.628,7.085A2.214,2.214,0,0,0,5.021,9.762l1.191,4.823a10.636,10.636,0,0,1-1.3.617.476.476,0,0,0-.3.487c.252,2.8,1.431,7.651,6.5,8.638a.476.476,0,0,0,.364-.077c4.227-2.956,3.337-7.865,2.43-10.528a.476.476,0,0,0-.475-.322,10.6,10.6,0,0,1-1.546-.034l-.663-2.686a1.256,1.256,0,0,1,.917-1.525l12.2-3.019a1.258,1.258,0,0,1,1.52.922L29.606,22.31l-1.986.5a2.449,2.449,0,0,0-1.5,3.139l.34,1.393-9.286,2.3a1.238,1.238,0,0,1-.94-.14c-.506-.255-.619-.912-.733-1.409L14.44,23.774a.475.475,0,1,0-.924.227l.946,3.856-2.557.632a1.266,1.266,0,0,1-1.522-.926L9.8,25.191a.475.475,0,1,0-.923.228l.585,2.373a2.221,2.221,0,0,0,2.148,1.684c.307.04,2.728-.623,3.08-.7a2.239,2.239,0,0,0,2.177,1.844,2.195,2.195,0,0,0,.535-.066l9.714-2.4a.49.49,0,0,0,.124-.053.426.426,0,0,0,.211-.188l3.135-5c.008-.015.011-.032.018-.048Zm-17.5-8.5c.764,2.429,1.348,6.493-2.019,8.989-4.094-.915-5.21-4.867-5.5-7.4a12.123,12.123,0,0,0,3.451-2.243,11.946,11.946,0,0,0,4.066.651ZM11.9,8.231a2.218,2.218,0,0,0-1.612,2.676l.571,2.311a10.725,10.725,0,0,1-1.768-.5.476.476,0,0,0-.5.106,10.718,10.718,0,0,1-1.524,1.242L5.944,9.535a1.262,1.262,0,0,1,.912-1.527l12.2-3.019a1.278,1.278,0,0,1,1.561,1.084ZM27.033,24.6a1.109,1.109,0,0,1,.817-.871l1.3-.325-1.926,3.074A3.78,3.78,0,0,1,27.033,24.6Z" transform="translate(0 0)" fill="#37bf86"/>
    <path id="Path_10" data-name="Path 10" d="M33.835,14.446l-9.757,2.671a.476.476,0,0,0,.251.917l9.757-2.671a.476.476,0,1,0-.251-.918Z" transform="translate(-10.032 -5.471)" fill="#37bf86"/>
    <path id="Path_11" data-name="Path 11" d="M26.3,27.654a.491.491,0,0,0,.126-.017l8.219-2.25a.476.476,0,1,0-.251-.918L26.17,26.72a.477.477,0,0,0,.125.934Z" transform="translate(-11.133 -10.729)" fill="#37bf86"/>
    <path id="Path_12" data-name="Path 12" d="M38.93,33.019a.477.477,0,0,0-.584-.333l-9.757,2.671a.476.476,0,1,0,.251.917L38.6,33.6A.475.475,0,0,0,38.93,33.019Z" transform="translate(-12.399 -15.038)" fill="#37bf86"/>
    <path id="Path_13" data-name="Path 13" d="M38.741,41.869l-7.754,2.123a.476.476,0,1,0,.251.917l7.754-2.123a.476.476,0,1,0-.251-.918Z" transform="translate(-13.656 -19.855)" fill="#37bf86"/>
    <path id="Path_14" data-name="Path 14" d="M13.709,29.574l-.169-.8a.915.915,0,0,0-1.08-.7l-.777.165a.913.913,0,0,0-.7,1.082l.169.8c-.4.11-1.145.129-1.367.564-.3.38-.027,1.051.039,1.466a.915.915,0,0,0,1.079.7l.792-.168.169.8a.915.915,0,0,0,1.08.7c.407-.112,1.126-.126,1.35-.559.305-.38.025-1.068-.042-1.485l.792-.168a.906.906,0,0,0,.716-.84,6.389,6.389,0,0,0-.18-1.023.92.92,0,0,0-1.079-.7Zm.949.771.15.7-1.035.22a.663.663,0,0,0-.51.786l.221,1.042-.7.148c-.129-.442-.145-1.272-.507-1.46-.32-.257-1.091.068-1.534.126l-.149-.7,1.035-.219a.664.664,0,0,0,.51-.786l-.221-1.041.7-.148c.129.441.145,1.271.507,1.46.319.259,1.091-.068,1.534-.126Z" transform="translate(-2.645 -12.617)" fill="#37bf86"/>
  </g>
</svg>
