<svg id="hospital" xmlns="http://www.w3.org/2000/svg" width="23.962" height="23.962" viewBox="0 0 23.962 23.962">
  <path id="Path_1" data-name="Path 1" d="M4.6,27.962H27.363a.6.6,0,0,0,.6-.6V12.986a.6.6,0,0,0-.6-.6h-3V7a.6.6,0,0,0-.6-.6h-3V5.8a1.8,1.8,0,0,0-1.8-1.8h-5.99a1.8,1.8,0,0,0-1.8,1.8v.6h-3a.6.6,0,0,0-.6.6v5.391h-3a.6.6,0,0,0-.6.6V27.363A.6.6,0,0,0,4.6,27.962ZM24.367,13.585h2.4V26.764h-2.4ZM17.778,26.764H14.184V22.57h3.594ZM12.387,5.8a.6.6,0,0,1,.6-.6h5.99a.6.6,0,0,1,.6.6v5.99a.6.6,0,0,1-.6.6h-5.99a.6.6,0,0,1-.6-.6Zm-3.594,1.8h2.4v4.193a1.8,1.8,0,0,0,1.8,1.8h5.99a1.8,1.8,0,0,0,1.8-1.8V7.594h2.4V26.764H18.976V21.971a.6.6,0,0,0-.6-.6H13.585a.6.6,0,0,0-.6.6v4.792H8.792ZM5.2,13.585h2.4V26.764H5.2Z" transform="translate(-4 -4)" fill="#3e71d4"/>
  <path id="Path_2" data-name="Path 2" d="M20.6,11h1.2v1.2a.6.6,0,1,0,1.2,0V11h1.2a.6.6,0,0,0,0-1.2H23V8.6a.6.6,0,0,0-1.2,0V9.8H20.6a.6.6,0,1,0,0,1.2Z" transform="translate(-10.415 -5.604)" fill="#3e71d4"/>
  <path id="Path_3" data-name="Path 3" d="M16.6,24.2h1.2a.6.6,0,1,0,0-1.2H16.6a.6.6,0,0,0,0,1.2Z" transform="translate(-8.812 -11.618)" fill="#3e71d4"/>
  <path id="Path_4" data-name="Path 4" d="M18.4,28.6a.6.6,0,0,0-.6-.6H16.6a.6.6,0,0,0,0,1.2h1.2A.6.6,0,0,0,18.4,28.6Z" transform="translate(-8.812 -13.623)" fill="#3e71d4"/>
  <path id="Path_5" data-name="Path 5" d="M22.6,24.2h1.2a.6.6,0,1,0,0-1.2H22.6a.6.6,0,0,0,0,1.2Z" transform="translate(-11.217 -11.618)" fill="#3e71d4"/>
  <path id="Path_6" data-name="Path 6" d="M22.6,29.2h1.2a.6.6,0,1,0,0-1.2H22.6a.6.6,0,0,0,0,1.2Z" transform="translate(-11.217 -13.623)" fill="#3e71d4"/>
  <path id="Path_7" data-name="Path 7" d="M28.6,24.2h1.2a.6.6,0,1,0,0-1.2H28.6a.6.6,0,0,0,0,1.2Z" transform="translate(-13.623 -11.618)" fill="#3e71d4"/>
  <path id="Path_8" data-name="Path 8" d="M28.6,29.2h1.2a.6.6,0,0,0,0-1.2H28.6a.6.6,0,0,0,0,1.2Z" transform="translate(-13.623 -13.623)" fill="#3e71d4"/>
</svg>
