<svg xmlns="http://www.w3.org/2000/svg" width="37.347" height="27.101" viewBox="0 0 37.347 27.101">
  <g id="id-card" transform="translate(-2 -10.23)">
    <path id="Path_103" data-name="Path 103" d="M35.955,10.23H5.392A3.4,3.4,0,0,0,2,13.622V33.939a3.4,3.4,0,0,0,3.392,3.392H35.955a3.4,3.4,0,0,0,3.392-3.392V13.622a3.4,3.4,0,0,0-3.392-3.392ZM3.245,13.622a2.15,2.15,0,0,1,2.147-2.147H35.955A2.15,2.15,0,0,1,38.1,13.622v.859H3.245Zm32.71,22.464H5.392A2.15,2.15,0,0,1,3.245,33.94V15.726H38.1V33.94A2.15,2.15,0,0,1,35.955,36.087Z" fill="#9e6b28"/>
    <path id="Path_104" data-name="Path 104" d="M16.433,29.575a3.288,3.288,0,1,0-3.287-3.288A3.291,3.291,0,0,0,16.433,29.575Zm0-5.33a2.043,2.043,0,1,1-2.042,2.042A2.045,2.045,0,0,1,16.433,24.245Z" transform="translate(-4.208 -4.821)" fill="#9e6b28"/>
    <path id="Path_105" data-name="Path 105" d="M15.983,33.93h-1.5a4.52,4.52,0,0,0-4.515,4.515v3.2a.622.622,0,0,0,.622.622h9.28a.622.622,0,0,0,.622-.622v-3.2A4.52,4.52,0,0,0,15.983,33.93Zm3.27,7.095H11.218v-2.58a3.274,3.274,0,0,1,3.27-3.27h1.5a3.274,3.274,0,0,1,3.27,3.27Z" transform="translate(-3.01 -8.948)" fill="#9e6b28"/>
    <path id="Path_106" data-name="Path 106" d="M47.912,25.8H39.5a.622.622,0,0,0,0,1.245h8.409a.622.622,0,1,0,0-1.245Z" transform="translate(-13.924 -5.878)" fill="#9e6b28"/>
    <path id="Path_107" data-name="Path 107" d="M30.562,27.045h2.5a.622.622,0,1,0,0-1.245h-2.5a.622.622,0,1,0,0,1.245Z" transform="translate(-10.549 -5.878)" fill="#9e6b28"/>
    <path id="Path_108" data-name="Path 108" d="M30.558,32.466H44.533a.622.622,0,0,0,0-1.245H30.558a.622.622,0,0,0,0,1.245Z" transform="translate(-10.547 -7.925)" fill="#9e6b28"/>
    <path id="Path_109" data-name="Path 109" d="M51.453,36.64H48.882a.622.622,0,1,0,0,1.245h2.571a.622.622,0,1,0,0-1.245Z" transform="translate(-17.465 -9.971)" fill="#9e6b28"/>
    <path id="Path_110" data-name="Path 110" d="M30.562,36.64a.622.622,0,0,0,0,1.245h8.347a.622.622,0,0,0,0-1.245Z" transform="translate(-10.549 -9.971)" fill="#9e6b28"/>
    <path id="Path_111" data-name="Path 111" d="M44.533,42.06H30.558a.622.622,0,1,0,0,1.245H44.533a.622.622,0,1,0,0-1.245Z" transform="translate(-10.547 -12.017)" fill="#9e6b28"/>
  </g>
</svg>
