<svg xmlns="http://www.w3.org/2000/svg" width="42.309" height="35.774" viewBox="0 0 42.309 35.774">
  <g id="identity" transform="translate(-1.5 -6.4)">
    <g id="Group_139" data-name="Group 139" transform="translate(1.5 6.4)">
      <g id="Group_131" data-name="Group 131">
        <path id="Path_112" data-name="Path 112" d="M43.347,30.36l-2.706-1.254-1.518-8.713a3.853,3.853,0,0,0-2.508-2.97l-6.93-2.376V8.38A1.986,1.986,0,0,0,27.7,6.4H3.48A1.986,1.986,0,0,0,1.5,8.38V23.231a1.986,1.986,0,0,0,1.98,1.98H14.437a4.305,4.305,0,0,0,2.442,2.376,5.428,5.428,0,0,0,3.234.066A3.907,3.907,0,0,0,21.5,30.69a4.317,4.317,0,0,0,2.772.858,10.333,10.333,0,0,0,1.782-.2c.594.99,1.056,1.848,1.386,2.442.528,1.188,2.838,4.95,8.911,4.752l6.468,3.564a.6.6,0,0,0,.33.066.5.5,0,0,0,.33-.066.693.693,0,0,0,.33-.594V30.954a.84.84,0,0,0-.462-.594ZM2.82,23.231V8.38a.661.661,0,0,1,.66-.66H27.7a.661.661,0,0,1,.66.66v13.4a.5.5,0,0,0,.066.264.065.065,0,0,0,.066.066c0,.066.066.066.066.132l2.31,2.9a.813.813,0,0,1,.132.66.587.587,0,0,1-.4.4.294.294,0,0,1-.4-.2l-3.564-5.346A2.873,2.873,0,0,0,23.809,19.4a3.251,3.251,0,0,0-1.65.858l-.132.132c-1.32,1.056-1.056,2.442-.528,3.63H3.48A.918.918,0,0,1,2.82,23.231ZM22.291,29.7a3.178,3.178,0,0,1-.858-2.9.643.643,0,0,0-.264-.594.938.938,0,0,0-.4-.132c-.132,0-.2,0-.264.066a4.788,4.788,0,0,1-3.168.264,2.935,2.935,0,0,1-1.386-1.188h6.2l3.1,4.95a3.9,3.9,0,0,1-2.97-.462ZM42.423,40.458c-6.006-3.234-5.676-3.168-6.006-3.168-5.412.2-7.392-3.036-7.855-4.026-.858-1.716-6.6-11.221-5.742-11.947l.132-.132a2.011,2.011,0,0,1,1.056-.528,1.7,1.7,0,0,1,1.518.726l3.564,5.346a1.63,1.63,0,0,0,1.914.66,1.733,1.733,0,0,0,1.188-1.32,2.018,2.018,0,0,0-.4-1.914l-2.178-2.706V16.367l6.468,2.244a2.546,2.546,0,0,1,1.65,1.914l1.716,9.109a.7.7,0,0,0,.4.462l2.64,1.254v9.109Z" transform="translate(-1.5 -6.4)" fill="#9e6b28"/>
      </g>
      <g id="Group_132" data-name="Group 132" transform="translate(3.234 3.234)">
        <path id="Path_113" data-name="Path 113" d="M11.878,16.184a2.707,2.707,0,0,0,.924-2.046,2.838,2.838,0,1,0-5.676,0,2.607,2.607,0,0,0,.924,2.046A3.667,3.667,0,0,0,6.4,19.221a.624.624,0,0,0,.66.66.624.624,0,0,0,.66-.66,2.244,2.244,0,1,1,4.488,0,.66.66,0,0,0,1.32,0,3.36,3.36,0,0,0-1.65-3.036ZM8.446,14.072A1.518,1.518,0,1,1,9.964,15.59,1.494,1.494,0,0,1,8.446,14.072Z" transform="translate(-6.4 -11.3)" fill="#9e6b28"/>
      </g>
      <g id="Group_133" data-name="Group 133" transform="translate(11.485 4.818)">
        <path id="Path_114" data-name="Path 114" d="M19.56,15.02H32.431a.66.66,0,1,0,0-1.32H19.56a.624.624,0,0,0-.66.66.661.661,0,0,0,.66.66Z" transform="translate(-18.9 -13.7)" fill="#9e6b28"/>
      </g>
      <g id="Group_134" data-name="Group 134" transform="translate(11.485 8.977)">
        <path id="Path_115" data-name="Path 115" d="M19.56,21.32h8.053a.66.66,0,0,0,0-1.32H19.56a.624.624,0,0,0-.66.66A.661.661,0,0,0,19.56,21.32Z" transform="translate(-18.9 -20)" fill="#9e6b28"/>
      </g>
      <g id="Group_135" data-name="Group 135" transform="translate(3.234 14.257)">
        <path id="Path_116" data-name="Path 116" d="M8.842,28H7.06a.66.66,0,1,0,0,1.32H8.842a.66.66,0,1,0,0-1.32Z" transform="translate(-6.4 -28)" fill="#9e6b28"/>
      </g>
      <g id="Group_136" data-name="Group 136" transform="translate(7.326 14.257)">
        <path id="Path_117" data-name="Path 117" d="M15.042,28H13.26a.66.66,0,1,0,0,1.32h1.782a.624.624,0,0,0,.66-.66A.661.661,0,0,0,15.042,28Z" transform="translate(-12.6 -28)" fill="#9e6b28"/>
      </g>
      <g id="Group_137" data-name="Group 137" transform="translate(11.353 14.257)">
        <path id="Path_118" data-name="Path 118" d="M21.142,29.32a.66.66,0,0,0,0-1.32H19.36a.66.66,0,1,0,0,1.32Z" transform="translate(-18.7 -28)" fill="#9e6b28"/>
      </g>
      <g id="Group_138" data-name="Group 138" transform="translate(15.379 14.257)">
        <path id="Path_119" data-name="Path 119" d="M27.242,28H25.46a.66.66,0,0,0,0,1.32h1.782a.624.624,0,0,0,.66-.66A.661.661,0,0,0,27.242,28Z" transform="translate(-24.8 -28)" fill="#9e6b28"/>
      </g>
    </g>
  </g>
</svg>
