<svg xmlns="http://www.w3.org/2000/svg" width="41.602" height="27.475" viewBox="0 0 41.602 27.475">
  <g id="Layer_3" transform="translate(-6.999 -15.489)">
    <g id="Group_159" data-name="Group 159" transform="translate(6.999 15.489)">
      <g id="ARC_424_" transform="translate(0 19.046)">
        <g id="Group_140" data-name="Group 140">
          <path id="Path_120" data-name="Path 120" d="M12.979,41.73a.845.845,0,0,1-.12-.008A16.508,16.508,0,0,1,7.44,39.948a.833.833,0,1,1,.784-1.469A14.794,14.794,0,0,0,13.1,40.073a.832.832,0,0,1-.117,1.657Z" transform="translate(-6.999 -38.381)" fill="#9e6b28"/>
        </g>
      </g>
      <g id="ARC_423_" transform="translate(34.791 19.047)">
        <g id="Group_141" data-name="Group 141">
          <path id="Path_121" data-name="Path 121" d="M49.646,41.73a.832.832,0,0,1-.117-1.656A14.787,14.787,0,0,0,54.4,38.479a.833.833,0,0,1,.784,1.469,16.508,16.508,0,0,1-5.419,1.774A.985.985,0,0,1,49.646,41.73Z" transform="translate(-48.815 -38.382)" fill="#9e6b28"/>
        </g>
      </g>
      <g id="ARC_422_" transform="translate(26.088 10.752)">
        <g id="Group_142" data-name="Group 142">
          <path id="Path_122" data-name="Path 122" d="M39.186,32.586a.832.832,0,0,1-.7-1.286,6.341,6.341,0,0,1,5.329-2.888.832.832,0,1,1,0,1.664,4.679,4.679,0,0,0-3.935,2.132A.83.83,0,0,1,39.186,32.586Z" transform="translate(-38.354 -28.412)" fill="#9e6b28"/>
        </g>
      </g>
      <g id="CIRCLE_38_" transform="translate(27.956 1.537)">
        <g id="Group_143" data-name="Group 143">
          <path id="Path_123" data-name="Path 123" d="M46.04,28.215a5.44,5.44,0,1,1,5.44-5.44A5.513,5.513,0,0,1,46.04,28.215Zm0-9.215a3.776,3.776,0,1,0,3.776,3.776A3.827,3.827,0,0,0,46.04,19Z" transform="translate(-40.6 -17.336)" fill="#9e6b28"/>
        </g>
      </g>
      <g id="ARC_421_" transform="translate(34.407 10.753)">
        <g id="Group_144" data-name="Group 144">
          <path id="Path_124" data-name="Path 124" d="M54.716,35.607a.831.831,0,0,1-.832-.832,4.7,4.7,0,0,0-4.7-4.7.832.832,0,0,1,0-1.664,6.369,6.369,0,0,1,6.362,6.362A.832.832,0,0,1,54.716,35.607Z" transform="translate(-48.354 -28.413)" fill="#9e6b28"/>
        </g>
      </g>
      <g id="LINE_818_" transform="translate(30.721 10.752)">
        <g id="Group_145" data-name="Group 145">
          <path id="Path_125" data-name="Path 125" d="M48.442,30.076H44.755a.832.832,0,0,1,0-1.664h3.687a.832.832,0,1,1,0,1.664Z" transform="translate(-43.923 -28.412)" fill="#9e6b28"/>
        </g>
      </g>
      <g id="LINE_817_" transform="translate(39.937 16.282)">
        <g id="Group_146" data-name="Group 146">
          <path id="Path_126" data-name="Path 126" d="M55.832,39.488A.831.831,0,0,1,55,38.656V35.891a.832.832,0,0,1,1.664,0v2.765a.831.831,0,0,1-.832.832Z" transform="translate(-55 -35.059)" fill="#9e6b28"/>
        </g>
      </g>
      <g id="ARC_420_" transform="translate(10.139 12.289)">
        <g id="Group_147" data-name="Group 147">
          <path id="Path_127" data-name="Path 127" d="M20.017,39.3a.831.831,0,0,1-.832-.832,8.214,8.214,0,0,1,8.2-8.2.832.832,0,0,1,0,1.664,6.547,6.547,0,0,0-6.54,6.54A.832.832,0,0,1,20.017,39.3Z" transform="translate(-19.185 -30.259)" fill="#9e6b28"/>
        </g>
      </g>
      <g id="LINE_816_" transform="translate(17.511 12.289)">
        <g id="Group_148" data-name="Group 148">
          <path id="Path_128" data-name="Path 128" d="M33.793,31.923H28.878a.832.832,0,0,1,0-1.664h4.915a.832.832,0,1,1,0,1.664Z" transform="translate(-28.046 -30.259)" fill="#9e6b28"/>
        </g>
      </g>
      <g id="ARC_419_" transform="translate(9.218 10.752)">
        <g id="Group_149" data-name="Group 149">
          <path id="Path_129" data-name="Path 129" d="M23.543,32.586a.832.832,0,0,1-.7-.378,4.682,4.682,0,0,0-3.935-2.132.832.832,0,1,1,0-1.664A6.34,6.34,0,0,1,24.239,31.3a.832.832,0,0,1-.7,1.286Z" transform="translate(-18.078 -28.412)" fill="#9e6b28"/>
        </g>
      </g>
      <g id="LINE_815_" transform="translate(10.139 19.661)">
        <g id="Group_150" data-name="Group 150">
          <path id="Path_130" data-name="Path 130" d="M20.017,44.471a.831.831,0,0,1-.832-.832V39.952a.832.832,0,0,1,1.664,0v3.687A.832.832,0,0,1,20.017,44.471Z" transform="translate(-19.185 -39.12)" fill="#9e6b28"/>
        </g>
      </g>
      <g id="CIRCLE_37_" transform="translate(13.824)">
        <g id="Group_151" data-name="Group 151">
          <path id="Path_131" data-name="Path 131" d="M30.591,29.442a6.976,6.976,0,1,1,6.976-6.976A7.07,7.07,0,0,1,30.591,29.442Zm0-12.289A5.312,5.312,0,1,0,35.9,22.465,5.384,5.384,0,0,0,30.591,17.153Z" transform="translate(-23.615 -15.489)" fill="#9e6b28"/>
        </g>
      </g>
      <g id="ARC_418_" transform="translate(22.427 12.289)">
        <g id="Group_152" data-name="Group 152">
          <path id="Path_132" data-name="Path 132" d="M42.158,39.3a.831.831,0,0,1-.832-.832,6.547,6.547,0,0,0-6.54-6.54.832.832,0,0,1,0-1.664,8.214,8.214,0,0,1,8.2,8.2A.831.831,0,0,1,42.158,39.3Z" transform="translate(-33.954 -30.259)" fill="#9e6b28"/>
        </g>
      </g>
      <g id="LINE_814_" transform="translate(29.799 19.661)">
        <g id="Group_153" data-name="Group 153">
          <path id="Path_133" data-name="Path 133" d="M43.647,44.471a.831.831,0,0,1-.832-.832V39.952a.832.832,0,0,1,1.664,0v3.687A.831.831,0,0,1,43.647,44.471Z" transform="translate(-42.815 -39.12)" fill="#9e6b28"/>
        </g>
      </g>
      <g id="ARC_417_" transform="translate(10.138 23.348)">
        <g id="Group_154" data-name="Group 154">
          <path id="Path_134" data-name="Path 134" d="M29.847,47.678a21.71,21.71,0,0,1-10.222-2.56.833.833,0,1,1,.784-1.469,20.022,20.022,0,0,0,18.877,0,.833.833,0,1,1,.784,1.469,21.726,21.726,0,0,1-10.223,2.56Z" transform="translate(-19.184 -43.551)" fill="#9e6b28"/>
        </g>
      </g>
      <g id="CIRCLE_36_" transform="translate(2.765 1.537)">
        <g id="Group_155" data-name="Group 155">
          <path id="Path_135" data-name="Path 135" d="M15.763,28.215a5.44,5.44,0,1,1,5.44-5.44A5.512,5.512,0,0,1,15.763,28.215Zm0-9.215a3.776,3.776,0,1,0,3.776,3.776A3.826,3.826,0,0,0,15.763,19Z" transform="translate(-10.323 -17.336)" fill="#9e6b28"/>
        </g>
      </g>
      <g id="ARC_416_" transform="translate(0.001 10.753)">
        <g id="Group_156" data-name="Group 156">
          <path id="Path_136" data-name="Path 136" d="M7.832,35.607A.831.831,0,0,1,7,34.775a6.369,6.369,0,0,1,6.362-6.362.832.832,0,1,1,0,1.664,4.7,4.7,0,0,0-4.7,4.7A.832.832,0,0,1,7.832,35.607Z" transform="translate(-7 -28.413)" fill="#9e6b28"/>
        </g>
      </g>
      <g id="LINE_813_" transform="translate(5.53 10.752)">
        <g id="Group_157" data-name="Group 157">
          <path id="Path_137" data-name="Path 137" d="M18.165,30.076H14.478a.832.832,0,1,1,0-1.664h3.687a.832.832,0,1,1,0,1.664Z" transform="translate(-13.646 -28.412)" fill="#9e6b28"/>
        </g>
      </g>
      <g id="LINE_812_" transform="translate(0.001 16.282)">
        <g id="Group_158" data-name="Group 158">
          <path id="Path_138" data-name="Path 138" d="M7.832,39.488A.831.831,0,0,1,7,38.656V35.891a.832.832,0,0,1,1.664,0v2.765a.831.831,0,0,1-.832.832Z" transform="translate(-7 -35.059)" fill="#9e6b28"/>
        </g>
      </g>
    </g>
  </g>
</svg>
