<svg xmlns="http://www.w3.org/2000/svg" width="28.552" height="31.057" viewBox="0 0 28.552 31.057">
  <g id="patient" transform="translate(-5)">
    <path id="Path_81" data-name="Path 81" d="M30.488,64.754a3.34,3.34,0,0,0,1.5-2.777,3.4,3.4,0,0,0-6.8,0,3.337,3.337,0,0,0,1.461,2.75,5.087,5.087,0,0,0-2.31,2.071,6.251,6.251,0,0,0-2.961-2.465A4.009,4.009,0,0,0,23.343,60.9a4.125,4.125,0,0,0-8.247,0,4.011,4.011,0,0,0,2.012,3.455A6.261,6.261,0,0,0,14.216,66.8a5.088,5.088,0,0,0-2.31-2.071,3.337,3.337,0,0,0,1.461-2.75,3.4,3.4,0,0,0-6.8,0,3.34,3.34,0,0,0,1.5,2.777A5.452,5.452,0,0,0,5,69.749V71.9a.5.5,0,0,0,.5.5h7.637v.783a.5.5,0,0,0,.5.5H24.914a.5.5,0,0,0,.5-.5V72.4h7.637a.5.5,0,0,0,.5-.5V69.749A5.452,5.452,0,0,0,30.488,64.754Zm-1.9-5.128a2.352,2.352,0,1,1-2.4,2.351A2.378,2.378,0,0,1,28.586,59.626ZM16.1,60.9a3.123,3.123,0,1,1,3.122,3.028A3.079,3.079,0,0,1,16.1,60.9ZM9.967,59.626a2.352,2.352,0,1,1-2.4,2.351A2.378,2.378,0,0,1,9.967,59.626Zm3.171,10.9V71.4H6V69.749a4.235,4.235,0,0,1,4.011-4.419,3.988,3.988,0,0,1,3.637,2.563A6.963,6.963,0,0,0,13.138,70.522Zm11.275,2.163H14.139V70.522a5.382,5.382,0,0,1,5.137-5.587,5.382,5.382,0,0,1,5.137,5.587ZM32.55,71.4H25.415v-.879a6.963,6.963,0,0,0-.511-2.629A3.987,3.987,0,0,1,28.54,65.33a4.235,4.235,0,0,1,4.011,4.419V71.4Z" transform="translate(0 -42.63)" fill="#d16745"/>
    <path id="Path_82" data-name="Path 82" d="M50.976,17.044H49.135a.5.5,0,0,1-.5-.5V14.4H46.565a.5.5,0,0,1-.5-.5V12.021a.5.5,0,0,1,.5-.5h2.069V9.38a.5.5,0,0,1,.5-.5h1.841a.5.5,0,0,1,.5.5v2.14h2.069a.5.5,0,0,1,.5.5V13.9a.5.5,0,0,1-.5.5H51.477v2.14A.5.5,0,0,1,50.976,17.044Zm-1.34-1h.839V13.9a.5.5,0,0,1,.5-.5h2.069v-.879H50.976a.5.5,0,0,1-.5-.5V9.881h-.839v2.14a.5.5,0,0,1-.5.5H47.066V13.4h2.069a.5.5,0,0,1,.5.5Z" transform="translate(-30.779 -6.655)" fill="#d16745"/>
    <path id="Path_83" data-name="Path 83" d="M43.351,12.612a6.307,6.307,0,1,1,6.231-6.306A6.276,6.276,0,0,1,43.351,12.612Zm0-11.61a5.3,5.3,0,1,0,5.23,5.3A5.273,5.273,0,0,0,43.351,1Z" transform="translate(-24.075 0)" fill="#d16745"/>
  </g>
</svg>
