<svg id="Group_78" data-name="Group 78" xmlns="http://www.w3.org/2000/svg" xmlns:xlink="http://www.w3.org/1999/xlink" width="31.337" height="31.051" viewBox="0 0 31.337 31.051">
  <defs>
    <clipPath id="clip-path">
      <rect id="Rectangle_53" data-name="Rectangle 53" width="31.337" height="31.051" fill="#dda924"/>
    </clipPath>
  </defs>
  <g id="Group_77" data-name="Group 77" clip-path="url(#clip-path)">
    <path id="Path_70" data-name="Path 70" d="M.456,47.186H28.609a.457.457,0,1,0,0-.913h-.551V34.526A1.324,1.324,0,0,0,26.736,33.2H22.2V23.435a1.5,1.5,0,0,0-1.5-1.5h-1.1a5.082,5.082,0,0,0-10.122,0h-1.1a1.5,1.5,0,0,0-1.5,1.5V33.2H2.33a1.324,1.324,0,0,0-1.323,1.323V46.273H.457a.457.457,0,0,0,0,.913M22.2,34.117h4.535a.41.41,0,0,1,.41.41V46.273H22.2ZM17.414,46.273H11.651V40.462l2.9-.022h2.858v5.833ZM14.533,18.218a4.171,4.171,0,1,1-4.171,4.171A4.176,4.176,0,0,1,14.533,18.218ZM7.778,23.435a.59.59,0,0,1,.589-.589h1.1a5.082,5.082,0,0,0,10.122,0h1.1a.59.59,0,0,1,.589.589V46.273h-2.96V40.412l.54,0a.456.456,0,0,0,0-.913h0l-4.311.032H11.195a.451.451,0,0,0-.146.026l-.851.006a.456.456,0,0,0,0,.913h0l.533,0v5.8H7.778ZM1.92,34.526a.41.41,0,0,1,.41-.41H6.865V46.273H1.92Z" transform="translate(0 -16.135)" fill="#dda924"/>
    <path id="Path_71" data-name="Path 71" d="M171.483,52.738h.574v.575a.844.844,0,0,0,.843.843h1.477a.844.844,0,0,0,.843-.843v-.575h.575a.844.844,0,0,0,.843-.843V50.418a.844.844,0,0,0-.843-.843h-.575V49a.844.844,0,0,0-.843-.843H172.9a.844.844,0,0,0-.843.843v.574h-.574a.844.844,0,0,0-.843.843v1.477A.844.844,0,0,0,171.483,52.738Zm.07-2.25h.96a.457.457,0,0,0,.457-.457v-.96h1.337v.96a.457.457,0,0,0,.457.457h.961v1.337h-.961a.457.457,0,0,0-.457.457v.961H172.97v-.961a.457.457,0,0,0-.457-.457h-.96Z" transform="translate(-159.106 -44.903)" fill="#dda924"/>
    <path id="Path_72" data-name="Path 72" d="M127.821,176.686h2.269a1.242,1.242,0,0,0,1.241-1.241v-2.269a1.242,1.242,0,0,0-1.241-1.241h-2.269a1.242,1.242,0,0,0-1.241,1.241v2.269a1.242,1.242,0,0,0,1.241,1.241m-.327-3.509a.328.328,0,0,1,.327-.327h2.269a.328.328,0,0,1,.328.327v2.269a.328.328,0,0,1-.328.327h-2.269a.328.328,0,0,1-.327-.327Z" transform="translate(-118.024 -160.314)" fill="#dda924"/>
    <path id="Path_73" data-name="Path 73" d="M234.394,176.686h2.269a1.242,1.242,0,0,0,1.241-1.241v-2.269a1.242,1.242,0,0,0-1.241-1.241h-2.269a1.242,1.242,0,0,0-1.241,1.241v2.269a1.242,1.242,0,0,0,1.241,1.241m-.328-3.509a.328.328,0,0,1,.328-.327h2.269a.328.328,0,0,1,.328.327v2.269a.328.328,0,0,1-.328.327h-2.269a.328.328,0,0,1-.328-.327Z" transform="translate(-217.393 -160.314)" fill="#dda924"/>
    <path id="Path_74" data-name="Path 74" d="M339.319,279.89h-1.671a1.035,1.035,0,0,0-1.034,1.034v1.671a1.035,1.035,0,0,0,1.034,1.034h1.671a1.035,1.035,0,0,0,1.034-1.034v-1.671a1.035,1.035,0,0,0-1.034-1.034m.121,2.7a.121.121,0,0,1-.121.121h-1.671a.121.121,0,0,1-.121-.121v-1.671a.121.121,0,0,1,.121-.121h1.671a.121.121,0,0,1,.121.121Z" transform="translate(-313.861 -260.971)" fill="#dda924"/>
    <path id="Path_75" data-name="Path 75" d="M339.319,376.688h-1.671a1.035,1.035,0,0,0-1.034,1.034v1.671a1.035,1.035,0,0,0,1.034,1.034h1.671a1.035,1.035,0,0,0,1.034-1.034v-1.671a1.035,1.035,0,0,0-1.034-1.034m.121,2.7a.121.121,0,0,1-.121.121h-1.671a.121.121,0,0,1-.121-.121v-1.671a.121.121,0,0,1,.121-.121h1.671a.121.121,0,0,1,.121.121Z" transform="translate(-313.861 -351.226)" fill="#dda924"/>
    <path id="Path_76" data-name="Path 76" d="M40.784,279.89H39.113a1.035,1.035,0,0,0-1.034,1.034v1.671a1.035,1.035,0,0,0,1.034,1.034h1.671a1.035,1.035,0,0,0,1.034-1.034v-1.671a1.035,1.035,0,0,0-1.034-1.034m.121,2.7a.121.121,0,0,1-.121.121H39.113a.121.121,0,0,1-.121-.121v-1.671a.121.121,0,0,1,.121-.121h1.671a.121.121,0,0,1,.121.121Z" transform="translate(-35.505 -260.971)" fill="#dda924"/>
    <path id="Path_77" data-name="Path 77" d="M40.784,376.688H39.113a1.035,1.035,0,0,0-1.034,1.034v1.671a1.035,1.035,0,0,0,1.034,1.034h1.671a1.035,1.035,0,0,0,1.034-1.034v-1.671a1.035,1.035,0,0,0-1.034-1.034m.121,2.7a.121.121,0,0,1-.121.121H39.113a.121.121,0,0,1-.121-.121v-1.671a.121.121,0,0,1,.121-.121h1.671a.121.121,0,0,1,.121.121Z" transform="translate(-35.505 -351.226)" fill="#dda924"/>
    <path id="Path_78" data-name="Path 78" d="M130.089,263.372a1.242,1.242,0,0,0,1.241-1.241v-2.269a1.242,1.242,0,0,0-1.241-1.241h-2.269a1.242,1.242,0,0,0-1.241,1.241v2.269a1.242,1.242,0,0,0,1.241,1.241Zm-2.6-1.241v-2.269a.328.328,0,0,1,.327-.327h2.269a.328.328,0,0,1,.328.327v2.269a.328.328,0,0,1-.328.327h-2.269a.328.328,0,0,1-.327-.327" transform="translate(-118.024 -241.141)" fill="#dda924"/>
    <path id="Path_79" data-name="Path 79" d="M234.394,263.372h2.269a1.242,1.242,0,0,0,1.241-1.241v-2.269a1.242,1.242,0,0,0-1.241-1.241h-2.269a1.242,1.242,0,0,0-1.241,1.241v2.269a1.242,1.242,0,0,0,1.241,1.241m-.328-3.509a.328.328,0,0,1,.328-.327h2.269a.328.328,0,0,1,.328.327v2.269a.328.328,0,0,1-.328.327h-2.269a.328.328,0,0,1-.328-.327Z" transform="translate(-217.393 -241.141)" fill="#dda924"/>
    <path id="Path_80" data-name="Path 80" d="M345.707,8.336a4.035,4.035,0,0,1-4.12-4.161,4.124,4.124,0,1,1,8.248-.015,4.042,4.042,0,0,1-4.12,4.175h-.008Zm-1.92-1.577a3.186,3.186,0,0,0,1.924.635h.1a3.111,3.111,0,0,0,2.815-1.9,3.127,3.127,0,0,0-.316-3.254ZM345.616.941a3.111,3.111,0,0,0-2.815,1.9,3.127,3.127,0,0,0,.317,3.254l4.518-4.518a3.185,3.185,0,0,0-1.924-.635h-.1" transform="translate(-318.498)" fill="#dda924"/>
  </g>
</svg>
